999
dxfrw 0.6.3
  0
SECTION
  2
HEADER
  9
$ACADVER
  1
AC1021
  9
$DWGCODEPAGE
  3
ANSI_1252
  9
$INSBASE
 10
0
 20
0
 30
0
  9
$EXTMIN
 10
-0.06194960521680547
 20
-0.06729382256910495
 30
0
  9
$EXTMAX
 10
10.999
 20
5.302
 30
0
  9
$LIMMIN
 10
0
 20
0
  9
$LIMMAX
 10
420
 20
297
  9
$ORTHOMODE
 70
    0
  9
$REGENMODE
 70
    1
  9
$FILLMODE
 70
    1
  9
$QTEXTMODE
 70
    0
  9
$MIRRTEXT
 70
    0
  9
$LTSCALE
 40
1
  9
$ATTMODE
 70
    0
  9
$TEXTSIZE
 40
2.5
  9
$TRACEWID
 40
15.68
  9
$TEXTSTYLE
  7
STANDARD
  9
$CLAYER
  8
0
  9
$CELTYPE
  6
BYLAYER
  9
$CECOLOR
 62
  256
  9
$CELTSCALE
 40
1
  9
$DISPSILH
 70
    0
  9
$DIMSCALE
 40
1
  9
$DIMASZ
 40
0.08
  9
$DIMEXO
 40
0.025
  9
$DIMDLI
 40
3.75
  9
$DIMRND
 40
0
  9
$DIMDLE
 40
0
  9
$DIMEXE
 40
0.05
  9
$DIMTP
 40
0
  9
$DIMTM
 40
0
  9
$DIMTXT
 40
0.1
  9
$DIMCEN
 40
2.5
  9
$DIMTSZ
 40
0
  9
$DIMTOL
 70
    0
  9
$DIMLIM
 70
    0
  9
$DIMTIH
 70
    0
  9
$DIMTOH
 70
    0
  9
$DIMSE1
 70
    0
  9
$DIMSE2
 70
    0
  9
$DIMTAD
 70
    1
  9
$DIMZIN
 70
    1
  9
$DIMBLK
  1

  9
$DIMASO
 70
    1
  9
$DIMSHO
 70
    1
  9
$DIMPOST
  1

  9
$DIMAPOST
  1

  9
$DIMALT
 70
    0
  9
$DIMALTD
 70
    3
  9
$DIMALTF
 40
0.03937
  9
$DIMLFAC
 40
1
  9
$DIMTOFL
 70
    1
  9
$DIMTVP
 40
0
  9
$DIMTIX
 70
    0
  9
$DIMSOXD
 70
    0
  9
$DIMSAH
 70
    0
  9
$DIMBLK1
  1

  9
$DIMBLK2
  1

  9
$DIMSTYLE
  2
STANDARD
  9
$DIMCLRD
 70
    0
  9
$DIMCLRE
 70
    0
  9
$DIMCLRT
 70
    0
  9
$DIMTFAC
 40
1
  9
$DIMGAP
 40
0.025
  9
$DIMJUST
 70
    0
  9
$DIMSD1
 70
    0
  9
$DIMSD2
 70
    0
  9
$DIMTOLJ
 70
    0
  9
$DIMTZIN
 70
    8
  9
$DIMALTZ
 70
    0
  9
$DIMALTTZ
 70
    0
  9
$DIMUPT
 70
    0
  9
$DIMDEC
 70
    3
  9
$DIMTDEC
 70
    2
  9
$DIMALTU
 70
    2
  9
$DIMALTTD
 70
    3
  9
$DIMTXSTY
  7
standard
  9
$DIMAUNIT
 70
    0
  9
$DIMADEC
 70
    2
  9
$DIMALTRND
 40
0
  9
$DIMAZIN
 70
    0
  9
$DIMDSEP
 70
    0
  9
$DIMATFIT
 70
    3
  9
$DIMFRAC
 70
    0
  9
$DIMLDRBLK
  1
STANDARD
  9
$DIMLUNIT
 70
    2
  9
$DIMLWD
 70
   -2
  9
$DIMLWE
 70
   -2
  9
$DIMTMOVE
 70
    0
  9
$DIMFXL
 40
1
  9
$DIMFXLON
 70
    0
  9
$DIMJOGANG
 40
0.7854
  9
$DIMTFILL
 70
    0
  9
$DIMTFILLCLR
 70
    0
  9
$DIMARCSYM
 70
    0
  9
$DIMLTYPE
  6

  9
$DIMLTEX1
  6

  9
$DIMLTEX2
  6

  9
$LUNITS
 70
    2
  9
$LUPREC
 70
    5
  9
$SKETCHINC
 40
1
  9
$FILLETRAD
 40
0
  9
$AUNITS
 70
    0
  9
$AUPREC
 70
    2
  9
$MENU
  1
.
  9
$ELEVATION
 40
0
  9
$PELEVATION
 40
0
  9
$THICKNESS
 40
0
  9
$LIMCHECK
 70
    0
  9
$CHAMFERA
 40
0
  9
$CHAMFERB
 40
0
  9
$CHAMFERC
 40
0
  9
$CHAMFERD
 40
0
  9
$SKPOLY
 70
    0
  9
$USRTIMER
 70
    1
  9
$ANGBASE
 50
0
  9
$ANGDIR
 70
    0
  9
$PDMODE
 70
   34
  9
$PDSIZE
 40
0
  9
$PLINEWID
 40
0
  9
$SPLFRAME
 70
    0
  9
$SPLINETYPE
 70
    2
  9
$SPLINESEGS
 70
    8
  9
$HANDSEED
  5
20000
  9
$SURFTAB1
 70
    6
  9
$SURFTAB2
 70
    6
  9
$SURFTYPE
 70
    6
  9
$SURFU
 70
    6
  9
$SURFV
 70
    6
  9
$UCSBASE
  2

  9
$UCSNAME
  2

  9
$UCSORG
 10
0
 20
0
 30
0
  9
$UCSXDIR
 10
1
 20
0
 30
0
  9
$UCSYDIR
 10
0
 20
1
 30
0
  9
$UCSORTHOREF
  2

  9
$UCSORTHOVIEW
 70
    0
  9
$UCSORGTOP
 10
0
 20
0
 30
0
  9
$UCSORGBOTTOM
 10
0
 20
0
 30
0
  9
$UCSORGLEFT
 10
0
 20
0
 30
0
  9
$UCSORGRIGHT
 10
0
 20
0
 30
0
  9
$UCSORGFRONT
 10
0
 20
0
 30
0
  9
$UCSORGBACK
 10
0
 20
0
 30
0
  9
$PUCSBASE
  2

  9
$PUCSNAME
  2

  9
$PUCSORG
 10
0
 20
0
 30
0
  9
$PUCSXDIR
 10
1
 20
0
 30
0
  9
$PUCSYDIR
 10
0
 20
1
 30
0
  9
$PUCSORTHOREF
  2

  9
$PUCSORTHOVIEW
 70
    0
  9
$PUCSORGTOP
 10
0
 20
0
 30
0
  9
$PUCSORGBOTTOM
 10
0
 20
0
 30
0
  9
$PUCSORGLEFT
 10
0
 20
0
 30
0
  9
$PUCSORGRIGHT
 10
0
 20
0
 30
0
  9
$PUCSORGFRONT
 10
0
 20
0
 30
0
  9
$PUCSORGBACK
 10
0
 20
0
 30
0
  9
$USERI1
 70
    0
  9
$USERI2
 70
    0
  9
$USERI3
 70
    0
  9
$USERI4
 70
    0
  9
$USERI5
 70
    0
  9
$USERR1
 40
0
  9
$USERR2
 40
0
  9
$USERR3
 40
0
  9
$USERR4
 40
0
  9
$USERR5
 40
0
  9
$WORLDVIEW
 70
    1
  9
$SHADEDGE
 70
    3
  9
$SHADEDIF
 70
   70
  9
$TILEMODE
 70
    1
  9
$MAXACTVP
 70
   64
  9
$PINSBASE
 10
0
 20
0
 30
0
  9
$PLIMCHECK
 70
    0
  9
$PEXTMIN
 10
0
 20
0
 30
0
  9
$PEXTMAX
 10
0
 20
0
 30
0
  9
$GRIDMODE
 70
    1
  9
$SNAPSTYLE
 70
    0
  9
$GRIDUNIT
 10
0
 20
0
  9
$PLIMMIN
 10
0
 20
0
  9
$PLIMMAX
 10
0.0005045199999999999
 20
0.00071354
  9
$UNITMODE
 70
    0
  9
$VISRETAIN
 70
    1
  9
$PLINEGEN
 70
    0
  9
$PSLTSCALE
 70
    1
  9
$TREEDEPTH
 70
 3020
  9
$CMLSTYLE
  2
Standard
  9
$CMLJUST
 70
    0
  9
$CMLSCALE
 40
20
  9
$PROXYGRAPHICS
 70
    1
  9
$MEASUREMENT
 70
    1
  9
$CELWEIGHT
370
   -1
  9
$ENDCAPS
280
    0
  9
$JOINSTYLE
280
    0
  9
$LWDISPLAY
290
    0
  9
$INSUNITS
 70
    0
  9
$HYPERLINKBASE
  1

  9
$STYLESHEET
  1

  9
$XEDIT
290
    1
  9
$CEPSNTYPE
380
    0
  9
$PSTYLEMODE
290
    1
  9
$EXTNAMES
290
    1
  9
$PSVPSCALE
 40
1
  9
$OLESTARTUP
290
    0
  9
$SORTENTS
280
  127
  9
$INDEXCTL
280
    0
  9
$HIDETEXT
280
    1
  9
$XCLIPFRAME
290
    0
  9
$HALOGAP
280
    0
  9
$OBSCOLOR
 70
  257
  9
$OBSLTYPE
280
    0
  9
$INTERSECTIONDISPLAY
280
    0
  9
$INTERSECTIONCOLOR
 70
  257
  9
$DIMASSOC
280
    1
  9
$PROJECTNAME
  1

  9
$CAMERADISPLAY
290
    0
  9
$LENSLENGTH
 40
50
  9
$CAMERAHEIGHT
 40
0
  9
$STEPSPERSEC
 40
2
  9
$STEPSIZE
 40
50
  9
$3DDWFPREC
 40
2
  9
$PSOLWIDTH
 40
5
  9
$PSOLHEIGHT
 40
80
  9
$LOFTANG1
 40
1.570796326794897
  9
$LOFTANG2
 40
1.570796326794897
  9
$LOFTMAG1
 40
0
  9
$LOFTMAG2
 40
0
  9
$LOFTPARAM
 70
    7
  9
$LOFTNORMALS
280
    1
  9
$LATITUDE
 40
1
  9
$LONGITUDE
 40
1
  9
$NORTHDIRECTION
 40
0
  9
$TIMEZONE
 70
-8000
  9
$LIGHTGLYPHDISPLAY
280
    1
  9
$TILEMODELIGHTSYNCH
280
    1
  9
$SOLIDHIST
280
    1
  9
$SHOWHIST
280
    1
  9
$DWFFRAME
280
    2
  9
$DGNFRAME
280
    0
  9
$REALWORLDSCALE
290
    1
  9
$INTERFERECOLOR
 62
    1
  9
$CSHADOW
280
    0
  9
$SHADOWPLANELOCATION
 40
0
  0
ENDSEC
  0
SECTION
  2
CLASSES
  0
ENDSEC
  0
SECTION
  2
TABLES
  0
TABLE
  2
VPORT
  5
8
330
0
100
AcDbSymbolTable
 70
    1
  0
VPORT
  5
31
330
2
100
AcDbSymbolTableRecord
100
AcDbViewportTableRecord
  2
*ACTIVE
 70
    0
 10
0
 20
0
 11
1
 21
1
 12
9.76675563110544
 22
4.552665333760671
 13
0
 23
0
 14
10
 24
10
 15
10
 25
10
 16
0
 26
0
 36
1
 17
0
 27
0
 37
0
 40
13.74389534720203
 41
1.9475
 42
50
 43
0
 44
0
 50
0
 51
0
 71
    0
 72
  100
 73
    1
 74
    3
 75
    0
 76
    1
 77
    0
 78
    0
281
    0
 65
    1
110
0
120
0
130
0
111
1
121
0
131
0
112
0
122
1
132
0
 79
    0
146
0
348
10020
 60
    7
 61
    5
292
1
282
    1
141
0
142
0
 63
  250
421
3358443
  0
ENDTAB
  0
TABLE
  2
LTYPE
  5
5
330
0
100
AcDbSymbolTable
 70
    4
  0
LTYPE
  5
14
330
5
100
AcDbSymbolTableRecord
100
AcDbLinetypeTableRecord
  2
ByBlock
 70
    0
  3

 72
   65
 73
    0
 40
0
  0
LTYPE
  5
15
330
5
100
AcDbSymbolTableRecord
100
AcDbLinetypeTableRecord
  2
ByLayer
 70
    0
  3

 72
   65
 73
    0
 40
0
  0
LTYPE
  5
16
330
5
100
AcDbSymbolTableRecord
100
AcDbLinetypeTableRecord
  2
Continuous
 70
    0
  3
Solid line
 72
   65
 73
    0
 40
0
  0
LTYPE
  5
32
330
5
100
AcDbSymbolTableRecord
100
AcDbLinetypeTableRecord
  2
DOT
 70
    0
  3
Dot . . . . . . . . . . . . . . . . . . . . . .
 72
   65
 73
    2
 40
6.35
 49
0
 74
    0
 49
-6.35
 74
    0
  0
LTYPE
  5
33
330
5
100
AcDbSymbolTableRecord
100
AcDbLinetypeTableRecord
  2
DOTTINY
 70
    0
  3
Dot (.15x) .....................................
 72
   65
 73
    2
 40
0.9525
 49
0
 74
    0
 49
-0.9525
 74
    0
  0
LTYPE
  5
34
330
5
100
AcDbSymbolTableRecord
100
AcDbLinetypeTableRecord
  2
DOT2
 70
    0
  3
Dot (.5x) .....................................
 72
   65
 73
    2
 40
3.175
 49
0
 74
    0
 49
-3.175
 74
    0
  0
LTYPE
  5
35
330
5
100
AcDbSymbolTableRecord
100
AcDbLinetypeTableRecord
  2
DOTX2
 70
    0
  3
Dot (2x) .  .  .  .  .  .  .  .  .  .  .  .  .
 72
   65
 73
    2
 40
12.7
 49
0
 74
    0
 49
-12.7
 74
    0
  0
LTYPE
  5
36
330
5
100
AcDbSymbolTableRecord
100
AcDbLinetypeTableRecord
  2
DASHED
 70
    0
  3
Dashed _ _ _ _ _ _ _ _ _ _ _ _ _ _ _ _ _
 72
   65
 73
    2
 40
19.05
 49
12.7
 74
    0
 49
-6.35
 74
    0
  0
LTYPE
  5
37
330
5
100
AcDbSymbolTableRecord
100
AcDbLinetypeTableRecord
  2
DASHEDTINY
 70
    0
  3
Dashed (.15x) _ _ _ _ _ _ _ _ _ _ _ _ _ _ _ _ _
 72
   65
 73
    2
 40
2.8575
 49
1.905
 74
    0
 49
-0.9525
 74
    0
  0
LTYPE
  5
38
330
5
100
AcDbSymbolTableRecord
100
AcDbLinetypeTableRecord
  2
DASHED2
 70
    0
  3
Dashed (.5x) _ _ _ _ _ _ _ _ _ _ _ _ _ _ _ _ _
 72
   65
 73
    2
 40
9.524999999999999
 49
6.35
 74
    0
 49
-3.175
 74
    0
  0
LTYPE
  5
39
330
5
100
AcDbSymbolTableRecord
100
AcDbLinetypeTableRecord
  2
DASHEDX2
 70
    0
  3
Dashed (2x) ____  ____  ____  ____  ____  ___
 72
   65
 73
    2
 40
38.09999999999999
 49
25.4
 74
    0
 49
-12.7
 74
    0
  0
LTYPE
  5
3A
330
5
100
AcDbSymbolTableRecord
100
AcDbLinetypeTableRecord
  2
DASHDOT
 70
    0
  3
Dash dot __ . __ . __ . __ . __ . __ . __ . __
 72
   65
 73
    4
 40
25.4
 49
12.7
 74
    0
 49
-6.35
 74
    0
 49
0
 74
    0
 49
-6.35
 74
    0
  0
LTYPE
  5
3B
330
5
100
AcDbSymbolTableRecord
100
AcDbLinetypeTableRecord
  2
DASHDOTTINY
 70
    0
  3
Dash dot (.15x) _._._._._._._._._._._._._._._.
 72
   65
 73
    4
 40
3.81
 49
1.905
 74
    0
 49
-0.9525
 74
    0
 49
0
 74
    0
 49
-0.9525
 74
    0
  0
LTYPE
  5
3C
330
5
100
AcDbSymbolTableRecord
100
AcDbLinetypeTableRecord
  2
DASHDOT2
 70
    0
  3
Dash dot (.5x) _._._._._._._._._._._._._._._.
 72
   65
 73
    4
 40
12.7
 49
6.35
 74
    0
 49
-3.175
 74
    0
 49
0
 74
    0
 49
-3.175
 74
    0
  0
LTYPE
  5
3D
330
5
100
AcDbSymbolTableRecord
100
AcDbLinetypeTableRecord
  2
DASHDOTX2
 70
    0
  3
Dash dot (2x) ____  .  ____  .  ____  .  ___
 72
   65
 73
    4
 40
50.8
 49
25.4
 74
    0
 49
-12.7
 74
    0
 49
0
 74
    0
 49
-12.7
 74
    0
  0
LTYPE
  5
3E
330
5
100
AcDbSymbolTableRecord
100
AcDbLinetypeTableRecord
  2
DIVIDE
 70
    0
  3
Divide ____ . . ____ . . ____ . . ____ . . ____
 72
   65
 73
    6
 40
31.75
 49
12.7
 74
    0
 49
-6.35
 74
    0
 49
0
 74
    0
 49
-6.35
 74
    0
 49
0
 74
    0
 49
-6.35
 74
    0
  0
LTYPE
  5
3F
330
5
100
AcDbSymbolTableRecord
100
AcDbLinetypeTableRecord
  2
DIVIDETINY
 70
    0
  3
Divide (.15x) __..__..__..__..__..__..__..__.._
 72
   65
 73
    6
 40
4.7625
 49
1.905
 74
    0
 49
-0.9525
 74
    0
 49
0
 74
    0
 49
-0.9525
 74
    0
 49
0
 74
    0
 49
-0.9525
 74
    0
  0
LTYPE
  5
40
330
5
100
AcDbSymbolTableRecord
100
AcDbLinetypeTableRecord
  2
DIVIDE2
 70
    0
  3
Divide (.5x) __..__..__..__..__..__..__..__.._
 72
   65
 73
    6
 40
15.875
 49
6.35
 74
    0
 49
-3.175
 74
    0
 49
0
 74
    0
 49
-3.175
 74
    0
 49
0
 74
    0
 49
-3.175
 74
    0
  0
LTYPE
  5
41
330
5
100
AcDbSymbolTableRecord
100
AcDbLinetypeTableRecord
  2
DIVIDEX2
 70
    0
  3
Divide (2x) ________  .  .  ________  .  .  _
 72
   65
 73
    6
 40
63.5
 49
25.4
 74
    0
 49
-12.7
 74
    0
 49
0
 74
    0
 49
-12.7
 74
    0
 49
0
 74
    0
 49
-12.7
 74
    0
  0
LTYPE
  5
42
330
5
100
AcDbSymbolTableRecord
100
AcDbLinetypeTableRecord
  2
BORDER
 70
    0
  3
Border __ __ . __ __ . __ __ . __ __ . __ __ .
 72
   65
 73
    6
 40
44.45
 49
12.7
 74
    0
 49
-6.35
 74
    0
 49
12.7
 74
    0
 49
-6.35
 74
    0
 49
0
 74
    0
 49
-6.35
 74
    0
  0
LTYPE
  5
43
330
5
100
AcDbSymbolTableRecord
100
AcDbLinetypeTableRecord
  2
BORDERTINY
 70
    0
  3
Border (.15x) __.__.__.__.__.__.__.__.__.__.__.
 72
   65
 73
    6
 40
6.6675
 49
1.905
 74
    0
 49
-0.9525
 74
    0
 49
1.905
 74
    0
 49
-0.9525
 74
    0
 49
0
 74
    0
 49
-0.9525
 74
    0
  0
LTYPE
  5
44
330
5
100
AcDbSymbolTableRecord
100
AcDbLinetypeTableRecord
  2
BORDER2
 70
    0
  3
Border (.5x) __.__.__.__.__.__.__.__.__.__.__.
 72
   65
 73
    6
 40
22.225
 49
6.35
 74
    0
 49
-3.175
 74
    0
 49
6.35
 74
    0
 49
-3.175
 74
    0
 49
0
 74
    0
 49
-3.175
 74
    0
  0
LTYPE
  5
45
330
5
100
AcDbSymbolTableRecord
100
AcDbLinetypeTableRecord
  2
BORDERX2
 70
    0
  3
Border (2x) ____  ____  .  ____  ____  .  ___
 72
   65
 73
    6
 40
88.89999999999999
 49
25.4
 74
    0
 49
-12.7
 74
    0
 49
25.4
 74
    0
 49
-12.7
 74
    0
 49
0
 74
    0
 49
-12.7
 74
    0
  0
LTYPE
  5
46
330
5
100
AcDbSymbolTableRecord
100
AcDbLinetypeTableRecord
  2
CENTER
 70
    0
  3
Center ____ _ ____ _ ____ _ ____ _ ____ _ ____
 72
   65
 73
    4
 40
50.8
 49
31.75
 74
    0
 49
-6.35
 74
    0
 49
6.35
 74
    0
 49
-6.35
 74
    0
  0
LTYPE
  5
47
330
5
100
AcDbSymbolTableRecord
100
AcDbLinetypeTableRecord
  2
CENTERTINY
 70
    0
  3
Center (.15x) ___ _ ___ _ ___ _ ___ _ ___ _ ___
 72
   65
 73
    4
 40
7.619999999999999
 49
4.7625
 74
    0
 49
-0.9525
 74
    0
 49
0.9525
 74
    0
 49
-0.9525
 74
    0
  0
LTYPE
  5
48
330
5
100
AcDbSymbolTableRecord
100
AcDbLinetypeTableRecord
  2
CENTER2
 70
    0
  3
Center (.5x) ___ _ ___ _ ___ _ ___ _ ___ _ ___
 72
   65
 73
    4
 40
28.575
 49
19.05
 74
    0
 49
-3.175
 74
    0
 49
3.175
 74
    0
 49
-3.175
 74
    0
  0
LTYPE
  5
49
330
5
100
AcDbSymbolTableRecord
100
AcDbLinetypeTableRecord
  2
CENTERX2
 70
    0
  3
Center (2x) ________  __  ________  __  _____
 72
   65
 73
    4
 40
101.6
 49
63.5
 74
    0
 49
-12.7
 74
    0
 49
12.7
 74
    0
 49
-12.7
 74
    0
  0
ENDTAB
  0
TABLE
  2
LAYER
  5
2
330
0
100
AcDbSymbolTable
 70
    1
  0
LAYER
  5
10
330
2
100
AcDbSymbolTableRecord
100
AcDbLayerTableRecord
  2
0
 70
    0
 62
    7
  6
CONTINUOUS
370
    0
390
F
  0
LAYER
  5
4A
330
2
100
AcDbSymbolTableRecord
100
AcDbLayerTableRecord
  2
base_plate
 70
    0
 62
    2
  6
CONTINUOUS
370
    0
390
F
  0
LAYER
  5
4B
330
2
100
AcDbSymbolTableRecord
100
AcDbLayerTableRecord
  2
side_plate
 70
    0
 62
    6
  6
CONTINUOUS
370
    0
390
F
  0
LAYER
  5
4C
330
2
100
AcDbSymbolTableRecord
100
AcDbLayerTableRecord
  2
top_plate
 70
    0
 62
    5
  6
CONTINUOUS
370
    0
390
F
  0
ENDTAB
  0
TABLE
  2
STYLE
  5
3
330
0
100
AcDbSymbolTable
 70
    3
  0
STYLE
  5
4D
330
2
100
AcDbSymbolTableRecord
100
AcDbTextStyleTableRecord
  2
Standard
 70
    0
 40
0
 41
1
 50
0
 71
    0
 42
1
  3
txt
  4

  0
ENDTAB
  0
TABLE
  2
VIEW
  5
6
330
0
100
AcDbSymbolTable
 70
    0
  0
ENDTAB
  0
TABLE
  2
UCS
  5
7
330
0
100
AcDbSymbolTable
 70
    0
  0
ENDTAB
  0
TABLE
  2
APPID
  5
9
330
0
100
AcDbSymbolTable
 70
    1
  0
APPID
  5
12
330
9
100
AcDbSymbolTableRecord
100
AcDbRegAppTableRecord
  2
ACAD
 70
    0
  0
APPID
  5
4E
330
9
100
AcDbSymbolTableRecord
100
AcDbRegAppTableRecord
  2
LibreCad
 70
    0
  0
ENDTAB
  0
TABLE
  2
DIMSTYLE
  5
A
330
0
100
AcDbSymbolTable
 70
    1
100
AcDbDimStyleTable
 71
    1
  0
DIMSTYLE
105
4F
330
A
100
AcDbSymbolTableRecord
100
AcDbDimStyleTableRecord
  2
Standard
 70
    0
 40
1
 41
0.08
 42
0.025
 43
0.38
 44
0.05
 45
0
 46
0
 47
0
 48
0
 49
1
140
0.1
141
0.09
142
0
143
25.4
144
1
145
0
146
1
147
0.025
148
0
 71
    0
 72
    0
 73
    0
 74
    1
 75
    0
 76
    0
 77
    0
 78
    1
 79
    0
170
    0
171
    2
172
    0
173
    0
174
    0
175
    0
176
    0
177
    0
178
    0
179
    2
271
    3
272
    4
273
    2
274
    2
275
    0
276
    0
277
    2
278
    0
279
    0
280
    0
281
    0
282
    0
283
    1
284
    0
285
    0
286
    0
288
    0
289
    3
340
standard
341

371
   -2
372
   -2
  0
ENDTAB
  0
TABLE
  2
BLOCK_RECORD
  5
1
330
0
100
AcDbSymbolTable
 70
    2
  0
BLOCK_RECORD
  5
1F
330
1
100
AcDbSymbolTableRecord
100
AcDbBlockTableRecord
  2
*Model_Space
 70
    0
280
    1
281
    0
  0
BLOCK_RECORD
  5
1E
330
1
100
AcDbSymbolTableRecord
100
AcDbBlockTableRecord
  2
*Paper_Space
 70
    0
280
    1
281
    0
  0
BLOCK_RECORD
  5
50
330
1
100
AcDbSymbolTableRecord
100
AcDbBlockTableRecord
  2
*D15
 70
    0
280
    1
281
    0
  0
BLOCK_RECORD
  5
53
330
1
100
AcDbSymbolTableRecord
100
AcDbBlockTableRecord
  2
*D18
 70
    0
280
    1
281
    0
  0
BLOCK_RECORD
  5
56
330
1
100
AcDbSymbolTableRecord
100
AcDbBlockTableRecord
  2
*D19
 70
    0
280
    1
281
    0
  0
BLOCK_RECORD
  5
59
330
1
100
AcDbSymbolTableRecord
100
AcDbBlockTableRecord
  2
*D17
 70
    0
280
    1
281
    0
  0
BLOCK_RECORD
  5
5C
330
1
100
AcDbSymbolTableRecord
100
AcDbBlockTableRecord
  2
*D12
 70
    0
280
    1
281
    0
  0
BLOCK_RECORD
  5
5F
330
1
100
AcDbSymbolTableRecord
100
AcDbBlockTableRecord
  2
*D2
 70
    0
280
    1
281
    0
  0
BLOCK_RECORD
  5
62
330
1
100
AcDbSymbolTableRecord
100
AcDbBlockTableRecord
  2
*D8
 70
    0
280
    1
281
    0
  0
BLOCK_RECORD
  5
65
330
1
100
AcDbSymbolTableRecord
100
AcDbBlockTableRecord
  2
*D5
 70
    0
280
    1
281
    0
  0
BLOCK_RECORD
  5
68
330
1
100
AcDbSymbolTableRecord
100
AcDbBlockTableRecord
  2
*D7
 70
    0
280
    1
281
    0
  0
BLOCK_RECORD
  5
6B
330
1
100
AcDbSymbolTableRecord
100
AcDbBlockTableRecord
  2
*D9
 70
    0
280
    1
281
    0
  0
BLOCK_RECORD
  5
6E
330
1
100
AcDbSymbolTableRecord
100
AcDbBlockTableRecord
  2
*D13
 70
    0
280
    1
281
    0
  0
BLOCK_RECORD
  5
71
330
1
100
AcDbSymbolTableRecord
100
AcDbBlockTableRecord
  2
*D3
 70
    0
280
    1
281
    0
  0
BLOCK_RECORD
  5
74
330
1
100
AcDbSymbolTableRecord
100
AcDbBlockTableRecord
  2
*D20
 70
    0
280
    1
281
    0
  0
BLOCK_RECORD
  5
77
330
1
100
AcDbSymbolTableRecord
100
AcDbBlockTableRecord
  2
*D6
 70
    0
280
    1
281
    0
  0
BLOCK_RECORD
  5
7A
330
1
100
AcDbSymbolTableRecord
100
AcDbBlockTableRecord
  2
*D11
 70
    0
280
    1
281
    0
  0
BLOCK_RECORD
  5
7D
330
1
100
AcDbSymbolTableRecord
100
AcDbBlockTableRecord
  2
*D4
 70
    0
280
    1
281
    0
  0
BLOCK_RECORD
  5
80
330
1
100
AcDbSymbolTableRecord
100
AcDbBlockTableRecord
  2
*D10
 70
    0
280
    1
281
    0
  0
BLOCK_RECORD
  5
83
330
1
100
AcDbSymbolTableRecord
100
AcDbBlockTableRecord
  2
*D16
 70
    0
280
    1
281
    0
  0
BLOCK_RECORD
  5
86
330
1
100
AcDbSymbolTableRecord
100
AcDbBlockTableRecord
  2
*D14
 70
    0
280
    1
281
    0
  0
BLOCK_RECORD
  5
89
330
1
100
AcDbSymbolTableRecord
100
AcDbBlockTableRecord
  2
*D1
 70
    0
280
    1
281
    0
  0
BLOCK_RECORD
  5
8C
330
1
100
AcDbSymbolTableRecord
100
AcDbBlockTableRecord
  2
*D21
 70
    0
280
    1
281
    0
  0
ENDTAB
  0
ENDSEC
  0
SECTION
  2
BLOCKS
  0
BLOCK
  5
20
330
1F
100
AcDbEntity
  8
0
100
AcDbBlockBegin
  2
*Model_Space
 70
    0
 10
0
 20
0
 30
0
  3
*Model_Space
  1

  0
ENDBLK
  5
21
330
1F
100
AcDbEntity
  8
0
100
AcDbBlockEnd
  0
BLOCK
  5
1C
330
1B
100
AcDbEntity
  8
0
100
AcDbBlockBegin
  2
*Paper_Space
 70
    0
 10
0
 20
0
 30
0
  3
*Paper_Space
  1

  0
ENDBLK
  5
1D
330
1F
100
AcDbEntity
  8
0
100
AcDbBlockEnd
  0
BLOCK
  5
51
330
50
100
AcDbEntity
  8
0
100
AcDbBlockBegin
  2
*D15
 70
    1
 10
0
 20
0
  3
*D15
  1

  0
LINE
  5
8F
100
AcDbEntity
  8
0
  6
ByBlock
 62
    0
370
   -2
100
AcDbLine
 10
5.549999999999999
 20
2.309847654363133
 11
6.65
 21
2.309847654363133
  0
SOLID
  5
90
100
AcDbEntity
  8
0
  6
ByBlock
 62
    0
370
   -2
100
AcDbTrace
 10
5.549999999999999
 20
2.309847654363133
 30
0
 11
5.629999999999999
 21
2.323168763411864
 31
0
 12
5.629999999999999
 22
2.296526545314403
 32
0
 13
5.629999999999999
 23
2.296526545314403
 33
0
  0
SOLID
  5
91
100
AcDbEntity
  8
0
  6
ByBlock
 62
    0
370
   -2
100
AcDbTrace
 10
6.65
 20
2.309847654363133
 30
0
 11
6.57
 21
2.296526545314403
 31
0
 12
6.57
 22
2.323168763411864
 32
0
 13
6.57
 23
2.323168763411864
 33
0
  0
MTEXT
  5
92
100
AcDbEntity
  8
0
  6
CONTINUOUS
 62
    0
370
   -2
100
AcDbMText
 10
6.1
 20
2.384847654363133
 30
0
 40
0.1
 41
0.2666666666666667
 71
    5
 72
    1
  1
1.100
  7
standard
210
0
220
0
230
1
 50
0
 73
    2
 44
1
  0
LINE
  5
93
100
AcDbEntity
  8
0
  6
ByBlock
 62
    0
370
   -2
100
AcDbLine
 10
5.549999999999999
 20
2.625
 11
5.549999999999999
 21
2.259847654363134
  0
LINE
  5
94
100
AcDbEntity
  8
0
  6
ByBlock
 62
    0
370
   -2
100
AcDbLine
 10
6.65
 20
2.625
 11
6.65
 21
2.259847654363134
  0
ENDBLK
  5
52
330
50
100
AcDbEntity
  8
0
100
AcDbBlockEnd
  0
BLOCK
  5
54
330
53
100
AcDbEntity
  8
0
100
AcDbBlockBegin
  2
*D18
 70
    1
 10
0
 20
0
  3
*D18
  1

  0
LINE
  5
95
100
AcDbEntity
  8
0
  6
ByBlock
 62
    0
370
   -2
100
AcDbLine
 10
10.3660232465618
 20
3.488701689747492
 11
10.8339767534382
 21
3.495298310252506
  0
SOLID
  5
96
100
AcDbEntity
  8
0
  6
ByBlock
 62
    0
370
   -2
100
AcDbTrace
 10
10.52600735147681
 20
3.490956944621001
 30
0
 11
10.44620306461995
 21
3.476509531511519
 31
0
 12
10.44582753341867
 22
3.503149102856974
 32
0
 13
10.44582753341867
 23
3.503149102856974
 33
0
  0
SOLID
  5
97
100
AcDbEntity
  8
0
  6
ByBlock
 62
    0
370
   -2
100
AcDbTrace
 10
10.67399264852319
 20
3.493043055378997
 30
0
 11
10.75379693538005
 21
3.507490468488479
 31
0
 12
10.75417246658133
 22
3.480850897143024
 32
0
 13
10.75417246658133
 23
3.480850897143024
 33
0
  0
MTEXT
  5
98
100
AcDbEntity
  8
0
  6
CONTINUOUS
 62
    0
370
   -2
100
AcDbMText
 10
10.84791811255202
 20
3.570502289575806
 30
0
 40
0.1
 41
0.3
 71
    5
 72
    1
  1
0.148
  7
standard
210
0
220
0
230
1
 50
0.807630407029392
 73
    2
 44
1
  0
ENDBLK
  5
55
330
53
100
AcDbEntity
  8
0
100
AcDbBlockEnd
  0
BLOCK
  5
57
330
56
100
AcDbEntity
  8
0
100
AcDbBlockBegin
  2
*D19
 70
    1
 10
0
 20
0
  3
*D19
  1

  0
LINE
  5
99
100
AcDbEntity
  8
0
  6
ByBlock
 62
    0
370
   -2
100
AcDbLine
 10
8.971170457723304
 20
3.903999999999999
 11
8.971170457723304
 21
2.6
  0
SOLID
  5
9A
100
AcDbEntity
  8
0
  6
ByBlock
 62
    0
370
   -2
100
AcDbTrace
 10
8.971170457723304
 20
3.903999999999999
 30
0
 11
8.984491566772034
 21
3.823999999999999
 31
0
 12
8.957849348674573
 22
3.823999999999999
 32
0
 13
8.957849348674573
 23
3.823999999999999
 33
0
  0
SOLID
  5
9B
100
AcDbEntity
  8
0
  6
ByBlock
 62
    0
370
   -2
100
AcDbTrace
 10
8.971170457723304
 20
2.6
 30
0
 11
8.957849348674573
 21
2.68
 31
0
 12
8.984491566772034
 22
2.68
 32
0
 13
8.984491566772034
 23
2.68
 33
0
  0
MTEXT
  5
9C
100
AcDbEntity
  8
0
  6
CONTINUOUS
 62
    0
370
   -2
100
AcDbMText
 10
8.896170457723304
 20
3.251999999999999
 30
0
 40
0.1
 41
0.3000000000000063
 71
    5
 72
    1
  1
1.304
  7
standard
210
0
220
0
230
1
 50
90
 73
    2
 44
1
  0
LINE
  5
9D
100
AcDbEntity
  8
0
  6
ByBlock
 62
    0
370
   -2
100
AcDbLine
 10
9.225
 20
3.903999999999999
 11
8.921170457723303
 21
3.903999999999999
  0
LINE
  5
9E
100
AcDbEntity
  8
0
  6
ByBlock
 62
    0
370
   -2
100
AcDbLine
 10
9.225
 20
2.6
 11
8.921170457723303
 21
2.6
  0
ENDBLK
  5
58
330
56
100
AcDbEntity
  8
0
100
AcDbBlockEnd
  0
BLOCK
  5
5A
330
59
100
AcDbEntity
  8
0
100
AcDbBlockBegin
  2
*D17
 70
    1
 10
0
 20
0
  3
*D17
  1

  0
LINE
  5
9F
100
AcDbEntity
  8
0
  6
ByBlock
 62
    0
370
   -2
100
AcDbLine
 10
9.5
 20
3.705738358866815
 11
10.6
 21
3.705738358866815
  0
SOLID
  5
A0
100
AcDbEntity
  8
0
  6
ByBlock
 62
    0
370
   -2
100
AcDbTrace
 10
9.5
 20
3.705738358866815
 30
0
 11
9.58
 21
3.719059467915546
 31
0
 12
9.58
 22
3.692417249818084
 32
0
 13
9.58
 23
3.692417249818084
 33
0
  0
SOLID
  5
A1
100
AcDbEntity
  8
0
  6
ByBlock
 62
    0
370
   -2
100
AcDbTrace
 10
10.6
 20
3.705738358866815
 30
0
 11
10.52
 21
3.692417249818084
 31
0
 12
10.52
 22
3.719059467915546
 32
0
 13
10.52
 23
3.719059467915546
 33
0
  0
MTEXT
  5
A2
100
AcDbEntity
  8
0
  6
CONTINUOUS
 62
    0
370
   -2
100
AcDbMText
 10
10.05
 20
3.780738358866815
 30
0
 40
0.1
 41
0.2666666666666667
 71
    5
 72
    1
  1
1.100
  7
standard
210
0
220
0
230
1
 50
0
 73
    2
 44
1
  0
LINE
  5
A3
100
AcDbEntity
  8
0
  6
ByBlock
 62
    0
370
   -2
100
AcDbLine
 10
9.5
 20
3.516999999999999
 11
9.5
 21
3.755738358866815
  0
LINE
  5
A4
100
AcDbEntity
  8
0
  6
ByBlock
 62
    0
370
   -2
100
AcDbLine
 10
10.6
 20
3.516999999999999
 11
10.6
 21
3.755738358866815
  0
ENDBLK
  5
5B
330
59
100
AcDbEntity
  8
0
100
AcDbBlockEnd
  0
BLOCK
  5
5D
330
5C
100
AcDbEntity
  8
0
100
AcDbBlockBegin
  2
*D12
 70
    1
 10
0
 20
0
  3
*D12
  1

  0
LINE
  5
A5
100
AcDbEntity
  8
0
  6
ByBlock
 62
    0
370
   -2
100
AcDbLine
 10
5.384143426514699
 20
3.475
 11
5.384143426514699
 21
2.725
  0
SOLID
  5
A6
100
AcDbEntity
  8
0
  6
ByBlock
 62
    0
370
   -2
100
AcDbTrace
 10
5.384143426514699
 20
3.475
 30
0
 11
5.39746453556343
 21
3.395
 31
0
 12
5.370822317465968
 22
3.395
 32
0
 13
5.370822317465968
 23
3.395
 33
0
  0
SOLID
  5
A7
100
AcDbEntity
  8
0
  6
ByBlock
 62
    0
370
   -2
100
AcDbTrace
 10
5.384143426514699
 20
2.725
 30
0
 11
5.370822317465968
 21
2.805
 31
0
 12
5.39746453556343
 22
2.805
 32
0
 13
5.39746453556343
 23
2.805
 33
0
  0
MTEXT
  5
A8
100
AcDbEntity
  8
0
  6
CONTINUOUS
 62
    0
370
   -2
100
AcDbMText
 10
5.309143426514699
 20
3.1
 30
0
 40
0.1
 41
0.3111111111111173
 71
    5
 72
    1
  1
0.750
  7
standard
210
0
220
0
230
1
 50
90
 73
    2
 44
1
  0
LINE
  5
A9
100
AcDbEntity
  8
0
  6
ByBlock
 62
    0
370
   -2
100
AcDbLine
 10
5.699999999999999
 20
3.475
 11
5.334143426514699
 21
3.475
  0
LINE
  5
AA
100
AcDbEntity
  8
0
  6
ByBlock
 62
    0
370
   -2
100
AcDbLine
 10
5.699999999999999
 20
2.725
 11
5.334143426514699
 21
2.725
  0
ENDBLK
  5
5E
330
5C
100
AcDbEntity
  8
0
100
AcDbBlockEnd
  0
BLOCK
  5
60
330
5F
100
AcDbEntity
  8
0
100
AcDbBlockBegin
  2
*D2
 70
    1
 10
0
 20
0
  3
*D2
  1

  0
LINE
  5
AB
100
AcDbEntity
  8
0
  6
ByBlock
 62
    0
370
   -2
100
AcDbLine
 10
0.669999999999999
 20
2.247697979505408
 11
2.529999999999998
 21
2.247697979505408
  0
SOLID
  5
AC
100
AcDbEntity
  8
0
  6
ByBlock
 62
    0
370
   -2
100
AcDbTrace
 10
0.669999999999999
 20
2.247697979505408
 30
0
 11
0.749999999999999
 21
2.261019088554138
 31
0
 12
0.749999999999999
 22
2.234376870456677
 32
0
 13
0.749999999999999
 23
2.234376870456677
 33
0
  0
SOLID
  5
AD
100
AcDbEntity
  8
0
  6
ByBlock
 62
    0
370
   -2
100
AcDbTrace
 10
2.529999999999998
 20
2.247697979505408
 30
0
 11
2.449999999999998
 21
2.234376870456677
 31
0
 12
2.449999999999998
 22
2.261019088554138
 32
0
 13
2.449999999999998
 23
2.261019088554138
 33
0
  0
MTEXT
  5
AE
100
AcDbEntity
  8
0
  6
CONTINUOUS
 62
    0
370
   -2
100
AcDbMText
 10
1.599999999999999
 20
2.322697979505408
 30
0
 40
0.1
 41
0.2888888888888951
 71
    5
 72
    1
  1
1.860
  7
standard
210
0
220
0
230
1
 50
0
 73
    2
 44
1
  0
LINE
  5
AF
100
AcDbEntity
  8
0
  6
ByBlock
 62
    0
370
   -2
100
AcDbLine
 10
0.669999999999999
 20
2.645
 11
0.669999999999999
 21
2.197697979505408
  0
LINE
  5
B0
100
AcDbEntity
  8
0
  6
ByBlock
 62
    0
370
   -2
100
AcDbLine
 10
2.529999999999998
 20
2.645
 11
2.529999999999998
 21
2.197697979505408
  0
ENDBLK
  5
61
330
5F
100
AcDbEntity
  8
0
100
AcDbBlockEnd
  0
BLOCK
  5
63
330
62
100
AcDbEntity
  8
0
100
AcDbBlockBegin
  2
*D8
 70
    1
 10
0
 20
0
  3
*D8
  1

  0
LINE
  5
B1
100
AcDbEntity
  8
0
  6
ByBlock
 62
    0
370
   -2
100
AcDbLine
 10
5.549999999999999
 20
4.575626641292031
 11
6.65
 21
4.575626641292031
  0
SOLID
  5
B2
100
AcDbEntity
  8
0
  6
ByBlock
 62
    0
370
   -2
100
AcDbTrace
 10
5.549999999999999
 20
4.575626641292031
 30
0
 11
5.629999999999999
 21
4.588947750340762
 31
0
 12
5.629999999999999
 22
4.562305532243299
 32
0
 13
5.629999999999999
 23
4.562305532243299
 33
0
  0
SOLID
  5
B3
100
AcDbEntity
  8
0
  6
ByBlock
 62
    0
370
   -2
100
AcDbTrace
 10
6.65
 20
4.575626641292031
 30
0
 11
6.57
 21
4.562305532243299
 31
0
 12
6.57
 22
4.588947750340762
 32
0
 13
6.57
 23
4.588947750340762
 33
0
  0
MTEXT
  5
B4
100
AcDbEntity
  8
0
  6
CONTINUOUS
 62
    0
370
   -2
100
AcDbMText
 10
6.1
 20
4.650626641292032
 30
0
 40
0.1
 41
0.2666666666666667
 71
    5
 72
    1
  1
1.100
  7
standard
210
0
220
0
230
1
 50
0
 73
    2
 44
1
  0
LINE
  5
B5
100
AcDbEntity
  8
0
  6
ByBlock
 62
    0
370
   -2
100
AcDbLine
 10
5.549999999999999
 20
4.415000000000001
 11
5.549999999999999
 21
4.625626641292031
  0
LINE
  5
B6
100
AcDbEntity
  8
0
  6
ByBlock
 62
    0
370
   -2
100
AcDbLine
 10
6.65
 20
4.415000000000001
 11
6.65
 21
4.625626641292031
  0
ENDBLK
  5
64
330
62
100
AcDbEntity
  8
0
100
AcDbBlockEnd
  0
BLOCK
  5
66
330
65
100
AcDbEntity
  8
0
100
AcDbBlockBegin
  2
*D5
 70
    1
 10
0
 20
0
  3
*D5
  1

  0
LINE
  5
B7
100
AcDbEntity
  8
0
  6
ByBlock
 62
    0
370
   -2
100
AcDbLine
 10
0.7999999999999989
 20
3.6
 11
2.399999999999999
 21
3.6
  0
SOLID
  5
B8
100
AcDbEntity
  8
0
  6
ByBlock
 62
    0
370
   -2
100
AcDbTrace
 10
0.7999999999999989
 20
3.6
 30
0
 11
0.8799999999999989
 21
3.613321109048731
 31
0
 12
0.8799999999999989
 22
3.586678890951269
 32
0
 13
0.8799999999999989
 23
3.586678890951269
 33
0
  0
SOLID
  5
B9
100
AcDbEntity
  8
0
  6
ByBlock
 62
    0
370
   -2
100
AcDbTrace
 10
2.399999999999999
 20
3.6
 30
0
 11
2.319999999999999
 21
3.586678890951269
 31
0
 12
2.319999999999999
 22
3.613321109048731
 32
0
 13
2.319999999999999
 23
3.613321109048731
 33
0
  0
MTEXT
  5
BA
100
AcDbEntity
  8
0
  6
CONTINUOUS
 62
    0
370
   -2
100
AcDbMText
 10
1.599999999999999
 20
3.675
 30
0
 40
0.1
 41
0.2888888888888951
 71
    5
 72
    1
  1
1.600
  7
standard
210
0
220
0
230
1
 50
0
 73
    2
 44
1
  0
ENDBLK
  5
67
330
65
100
AcDbEntity
  8
0
100
AcDbBlockEnd
  0
BLOCK
  5
69
330
68
100
AcDbEntity
  8
0
100
AcDbBlockBegin
  2
*D7
 70
    1
 10
0
 20
0
  3
*D7
  1

  0
LINE
  5
BB
100
AcDbEntity
  8
0
  6
ByBlock
 62
    0
370
   -2
100
AcDbLine
 10
2.789995965266847
 20
4.528551537035585
 11
2.270004034733149
 21
4.531448462964415
  0
SOLID
  5
BC
100
AcDbEntity
  8
0
  6
ByBlock
 62
    0
370
   -2
100
AcDbTrace
 10
2.629998448179555
 20
4.52944289885984
 30
0
 11
2.710071418773594
 21
4.54231812027675
 31
0
 12
2.709922994672809
 22
4.515676315618675
 32
0
 13
2.709922994672809
 23
4.515676315618675
 33
0
  0
SOLID
  5
BD
100
AcDbEntity
  8
0
  6
ByBlock
 62
    0
370
   -2
100
AcDbTrace
 10
2.430001551820441
 20
4.530557101140159
 30
0
 11
2.349928581226402
 21
4.517681879723249
 31
0
 12
2.350077005327187
 22
4.544323684381324
 32
0
 13
2.350077005327187
 23
4.544323684381324
 33
0
  0
MTEXT
  5
BE
100
AcDbEntity
  8
0
  6
CONTINUOUS
 62
    0
370
   -2
100
AcDbMText
 10
2.810969027692209
 20
4.603435857935887
 30
0
 40
0.1
 41
0.3111111111111111
 71
    5
 72
    1
  1
0.200
  7
standard
210
0
220
0
230
1
 50
359.6808029079457
 73
    2
 44
1
  0
ENDBLK
  5
6A
330
68
100
AcDbEntity
  8
0
100
AcDbBlockEnd
  0
BLOCK
  5
6C
330
6B
100
AcDbEntity
  8
0
100
AcDbBlockBegin
  2
*D9
 70
    1
 10
0
 20
0
  3
*D9
  1

  0
LINE
  5
BF
100
AcDbEntity
  8
0
  6
ByBlock
 62
    0
370
   -2
100
AcDbLine
 10
5.289999999999999
 20
5.009125127024262
 11
6.91
 21
5.009125127024262
  0
SOLID
  5
C0
100
AcDbEntity
  8
0
  6
ByBlock
 62
    0
370
   -2
100
AcDbTrace
 10
5.289999999999999
 20
5.009125127024262
 30
0
 11
5.369999999999999
 21
5.022446236072994
 31
0
 12
5.369999999999999
 22
4.995804017975531
 32
0
 13
5.369999999999999
 23
4.995804017975531
 33
0
  0
SOLID
  5
C1
100
AcDbEntity
  8
0
  6
ByBlock
 62
    0
370
   -2
100
AcDbTrace
 10
6.91
 20
5.009125127024262
 30
0
 11
6.83
 21
4.995804017975531
 31
0
 12
6.83
 22
5.022446236072994
 32
0
 13
6.83
 23
5.022446236072994
 33
0
  0
MTEXT
  5
C2
100
AcDbEntity
  8
0
  6
CONTINUOUS
 62
    0
370
   -2
100
AcDbMText
 10
6.1
 20
5.084125127024262
 30
0
 40
0.1
 41
0.2888888888888951
 71
    5
 72
    1
  1
1.620
  7
standard
210
0
220
0
230
1
 50
0
 73
    2
 44
1
  0
LINE
  5
C3
100
AcDbEntity
  8
0
  6
ByBlock
 62
    0
370
   -2
100
AcDbLine
 10
5.289999999999999
 20
4.827
 11
5.289999999999999
 21
5.059125127024262
  0
LINE
  5
C4
100
AcDbEntity
  8
0
  6
ByBlock
 62
    0
370
   -2
100
AcDbLine
 10
6.91
 20
4.827
 11
6.91
 21
5.059125127024262
  0
ENDBLK
  5
6D
330
6B
100
AcDbEntity
  8
0
100
AcDbBlockEnd
  0
BLOCK
  5
6F
330
6E
100
AcDbEntity
  8
0
100
AcDbBlockBegin
  2
*D13
 70
    1
 10
0
 20
0
  3
*D13
  1

  0
LINE
  5
C5
100
AcDbEntity
  8
0
  6
ByBlock
 62
    0
370
   -2
100
AcDbLine
 10
6.713995077788359
 20
2.723466118343692
 11
6.23600492221164
 21
2.726533881656308
  0
SOLID
  5
C6
100
AcDbEntity
  8
0
  6
ByBlock
 62
    0
370
   -2
100
AcDbTrace
 10
6.553998372992805
 20
2.724492984724484
 30
0
 11
6.634082219134563
 21
2.737300386234208
 31
0
 12
6.633911231646601
 22
2.710658716833968
 32
0
 13
6.633911231646601
 23
2.710658716833968
 33
0
  0
SOLID
  5
C7
100
AcDbEntity
  8
0
  6
ByBlock
 62
    0
370
   -2
100
AcDbTrace
 10
6.396001627007195
 20
2.725507015275516
 30
0
 11
6.315917780865436
 21
2.712699613765792
 31
0
 12
6.316088768353398
 22
2.739341283166032
 32
0
 13
6.316088768353398
 23
2.739341283166032
 33
0
  0
MTEXT
  5
C8
100
AcDbEntity
  8
0
  6
CONTINUOUS
 62
    0
370
   -2
100
AcDbMText
 10
6.723920671340208
 20
2.798403960076076
 30
0
 40
0.1
 41
0.2888888888888951
 71
    5
 72
    1
  1
0.158
  7
standard
210
0
220
0
230
1
 50
359.6322780396866
 73
    2
 44
1
  0
ENDBLK
  5
70
330
6E
100
AcDbEntity
  8
0
100
AcDbBlockEnd
  0
BLOCK
  5
72
330
71
100
AcDbEntity
  8
0
100
AcDbBlockBegin
  2
*D3
 70
    1
 10
0
 20
0
  3
*D3
  1

  0
LINE
  5
C9
100
AcDbEntity
  8
0
  6
ByBlock
 62
    0
370
   -2
100
AcDbLine
 10
0.4999999999999987
 20
1.982706177430895
 11
2.699999999999999
 21
1.982706177430895
  0
SOLID
  5
CA
100
AcDbEntity
  8
0
  6
ByBlock
 62
    0
370
   -2
100
AcDbTrace
 10
0.4999999999999987
 20
1.982706177430895
 30
0
 11
0.5799999999999986
 21
1.996027286479626
 31
0
 12
0.5799999999999986
 22
1.969385068382164
 32
0
 13
0.5799999999999986
 23
1.969385068382164
 33
0
  0
SOLID
  5
CB
100
AcDbEntity
  8
0
  6
ByBlock
 62
    0
370
   -2
100
AcDbTrace
 10
2.699999999999999
 20
1.982706177430895
 30
0
 11
2.619999999999999
 21
1.969385068382164
 31
0
 12
2.619999999999999
 22
1.996027286479626
 32
0
 13
2.619999999999999
 23
1.996027286479626
 33
0
  0
MTEXT
  5
CC
100
AcDbEntity
  8
0
  6
CONTINUOUS
 62
    0
370
   -2
100
AcDbMText
 10
1.599999999999999
 20
2.057706177430895
 30
0
 40
0.1
 41
0.3111111111111111
 71
    5
 72
    1
  1
2.200
  7
standard
210
0
220
0
230
1
 50
0
 73
    2
 44
1
  0
LINE
  5
CD
100
AcDbEntity
  8
0
  6
ByBlock
 62
    0
370
   -2
100
AcDbLine
 10
0.4999999999999988
 20
2.575
 11
0.4999999999999987
 21
1.932706177430895
  0
LINE
  5
CE
100
AcDbEntity
  8
0
  6
ByBlock
 62
    0
370
   -2
100
AcDbLine
 10
2.699999999999999
 20
2.575
 11
2.699999999999999
 21
1.932706177430895
  0
ENDBLK
  5
73
330
71
100
AcDbEntity
  8
0
100
AcDbBlockEnd
  0
BLOCK
  5
75
330
74
100
AcDbEntity
  8
0
100
AcDbBlockBegin
  2
*D20
 70
    1
 10
0
 20
0
  3
*D20
  1

  0
LINE
  5
CF
100
AcDbEntity
  8
0
  6
ByBlock
 62
    0
370
   -2
100
AcDbLine
 10
9.776774359067485
 20
3.285999999999916
 11
9.776774359067485
 21
2.938000000000276
  0
SOLID
  5
D0
100
AcDbEntity
  8
0
  6
ByBlock
 62
    0
370
   -2
100
AcDbTrace
 10
9.776774359067485
 20
3.285999999999916
 30
0
 11
9.790095468116215
 21
3.205999999999916
 31
0
 12
9.763453250018754
 22
3.205999999999916
 32
0
 13
9.763453250018754
 23
3.205999999999916
 33
0
  0
SOLID
  5
D1
100
AcDbEntity
  8
0
  6
ByBlock
 62
    0
370
   -2
100
AcDbTrace
 10
9.776774359067485
 20
2.938000000000276
 30
0
 11
9.763453250018754
 21
3.018000000000276
 31
0
 12
9.790095468116215
 22
3.018000000000276
 32
0
 13
9.790095468116215
 23
3.018000000000276
 33
0
  0
MTEXT
  5
D2
100
AcDbEntity
  8
0
  6
CONTINUOUS
 62
    0
370
   -2
100
AcDbMText
 10
9.701774359067485
 20
3.112000000000096
 30
0
 40
0.1
 41
0.3222222222222285
 71
    5
 72
    1
  1
0.348
  7
standard
210
0
220
0
230
1
 50
90
 73
    2
 44
1
  0
LINE
  5
D3
100
AcDbEntity
  8
0
  6
ByBlock
 62
    0
370
   -2
100
AcDbLine
 10
9.525
 20
3.285999999999916
 11
9.826774359067485
 21
3.285999999999916
  0
LINE
  5
D4
100
AcDbEntity
  8
0
  6
ByBlock
 62
    0
370
   -2
100
AcDbLine
 10
9.525
 20
2.938000000000276
 11
9.826774359067485
 21
2.938000000000276
  0
ENDBLK
  5
76
330
74
100
AcDbEntity
  8
0
100
AcDbBlockEnd
  0
BLOCK
  5
78
330
77
100
AcDbEntity
  8
0
100
AcDbBlockBegin
  2
*D6
 70
    1
 10
0
 20
0
  3
*D6
  1

  0
LINE
  5
D5
100
AcDbEntity
  8
0
  6
ByBlock
 62
    0
370
   -2
100
AcDbLine
 10
2.383993612574356
 20
4.8882710481783
 11
1.916006387425642
 21
4.891728951821701
  0
SOLID
  5
D6
100
AcDbEntity
  8
0
  6
ByBlock
 62
    0
370
   -2
100
AcDbTrace
 10
2.223997980044881
 20
4.889453237458095
 30
0
 11
2.304094221761571
 21
4.902182888244734
 31
0
 12
2.303897370857666
 22
4.875541397391662
 32
0
 13
2.303897370857666
 23
4.875541397391662
 33
0
  0
SOLID
  5
D7
100
AcDbEntity
  8
0
  6
ByBlock
 62
    0
370
   -2
100
AcDbTrace
 10
2.076002019955117
 20
4.890546762541906
 30
0
 11
1.995905778238427
 21
4.877817111755267
 31
0
 12
1.996102629142332
 22
4.904458602608339
 32
0
 13
1.996102629142332
 23
4.904458602608339
 33
0
  0
MTEXT
  5
D8
100
AcDbEntity
  8
0
  6
CONTINUOUS
 62
    0
370
   -2
100
AcDbMText
 10
2.399547354348898
 20
4.963158170681511
 30
0
 40
0.1
 41
0.3
 71
    5
 72
    1
  1
0.148
  7
standard
210
0
220
0
230
1
 50
359.576655796041
 73
    2
 44
1
  0
ENDBLK
  5
79
330
77
100
AcDbEntity
  8
0
100
AcDbBlockEnd
  0
BLOCK
  5
7B
330
7A
100
AcDbEntity
  8
0
100
AcDbBlockBegin
  2
*D11
 70
    1
 10
0
 20
0
  3
*D11
  1

  0
LINE
  5
D9
100
AcDbEntity
  8
0
  6
ByBlock
 62
    0
370
   -2
100
AcDbLine
 10
5.725
 20
3.756403854674728
 11
6.475
 21
3.756403854674728
  0
SOLID
  5
DA
100
AcDbEntity
  8
0
  6
ByBlock
 62
    0
370
   -2
100
AcDbTrace
 10
5.725
 20
3.756403854674728
 30
0
 11
5.805
 21
3.769724963723459
 31
0
 12
5.805
 22
3.743082745625997
 32
0
 13
5.805
 23
3.743082745625997
 33
0
  0
SOLID
  5
DB
100
AcDbEntity
  8
0
  6
ByBlock
 62
    0
370
   -2
100
AcDbTrace
 10
6.475
 20
3.756403854674728
 30
0
 11
6.395
 21
3.743082745625997
 31
0
 12
6.395
 22
3.769724963723459
 32
0
 13
6.395
 23
3.769724963723459
 33
0
  0
MTEXT
  5
DC
100
AcDbEntity
  8
0
  6
CONTINUOUS
 62
    0
370
   -2
100
AcDbMText
 10
6.1
 20
3.831403854674728
 30
0
 40
0.1
 41
0.3111111111111173
 71
    5
 72
    1
  1
0.750
  7
standard
210
0
220
0
230
1
 50
0
 73
    2
 44
1
  0
LINE
  5
DD
100
AcDbEntity
  8
0
  6
ByBlock
 62
    0
370
   -2
100
AcDbLine
 10
5.725
 20
3.5
 11
5.725
 21
3.806403854674728
  0
LINE
  5
DE
100
AcDbEntity
  8
0
  6
ByBlock
 62
    0
370
   -2
100
AcDbLine
 10
6.475
 20
3.5
 11
6.475
 21
3.806403854674728
  0
ENDBLK
  5
7C
330
7A
100
AcDbEntity
  8
0
100
AcDbBlockEnd
  0
BLOCK
  5
7E
330
7D
100
AcDbEntity
  8
0
100
AcDbBlockBegin
  2
*D4
 70
    1
 10
0
 20
0
  3
*D4
  1

  0
LINE
  5
DF
100
AcDbEntity
  8
0
  6
ByBlock
 62
    0
370
   -2
100
AcDbLine
 10
0.0630503947831948
 20
5.302
 11
0.06305039478319463
 21
2.5
  0
SOLID
  5
E0
100
AcDbEntity
  8
0
  6
ByBlock
 62
    0
370
   -2
100
AcDbTrace
 10
0.0630503947831948
 20
5.302
 30
0
 11
0.07637150383192569
 21
5.222
 31
0
 12
0.0497292857344639
 22
5.222
 32
0
 13
0.0497292857344639
 23
5.222
 33
0
  0
SOLID
  5
E1
100
AcDbEntity
  8
0
  6
ByBlock
 62
    0
370
   -2
100
AcDbTrace
 10
0.06305039478319463
 20
2.5
 30
0
 11
0.04972928573446375
 21
2.58
 31
0
 12
0.07637150383192554
 22
2.58
 32
0
 13
0.07637150383192554
 23
2.58
 33
0
  0
MTEXT
  5
E2
100
AcDbEntity
  8
0
  6
CONTINUOUS
 62
    0
370
   -2
100
AcDbMText
 10
-0.0119496052168053
 20
3.901
 30
0
 40
0.1
 41
0.3111111111111111
 71
    5
 72
    1
  1
2.802
  7
standard
210
0
220
0
230
1
 50
90
 73
    2
 44
1
  0
LINE
  5
E3
100
AcDbEntity
  8
0
  6
ByBlock
 62
    0
370
   -2
100
AcDbLine
 10
0.758375964096594
 20
5.302
 11
0.01305039478319479
 21
5.302
  0
LINE
  5
E4
100
AcDbEntity
  8
0
  6
ByBlock
 62
    0
370
   -2
100
AcDbLine
 10
0.5749999999999987
 20
2.5
 11
0.01305039478319463
 21
2.5
  0
ENDBLK
  5
7F
330
7D
100
AcDbEntity
  8
0
100
AcDbBlockEnd
  0
BLOCK
  5
81
330
80
100
AcDbEntity
  8
0
100
AcDbBlockBegin
  2
*D10
 70
    1
 10
0
 20
0
  3
*D10
  1

  0
LINE
  5
E5
100
AcDbEntity
  8
0
  6
ByBlock
 62
    0
370
   -2
100
AcDbLine
 10
5.128474075668836
 20
2.55
 11
5.128474075668836
 21
4.802
  0
SOLID
  5
E6
100
AcDbEntity
  8
0
  6
ByBlock
 62
    0
370
   -2
100
AcDbTrace
 10
5.128474075668836
 20
2.55
 30
0
 11
5.115152966620105
 21
2.63
 31
0
 12
5.141795184717568
 22
2.63
 32
0
 13
5.141795184717568
 23
2.63
 33
0
  0
SOLID
  5
E7
100
AcDbEntity
  8
0
  6
ByBlock
 62
    0
370
   -2
100
AcDbTrace
 10
5.128474075668836
 20
4.802
 30
0
 11
5.141795184717568
 21
4.722
 31
0
 12
5.115152966620105
 22
4.722
 32
0
 13
5.115152966620105
 23
4.722
 33
0
  0
MTEXT
  5
E8
100
AcDbEntity
  8
0
  6
CONTINUOUS
 62
    0
370
   -2
100
AcDbMText
 10
5.053474075668836
 20
3.676
 30
0
 40
0.1
 41
0.3111111111111173
 71
    5
 72
    1
  1
2.252
  7
standard
210
0
220
0
230
1
 50
90
 73
    2
 44
1
  0
LINE
  5
E9
100
AcDbEntity
  8
0
  6
ByBlock
 62
    0
370
   -2
100
AcDbLine
 10
5.624999999999999
 20
2.55
 11
5.078474075668836
 21
2.55
  0
LINE
  5
EA
100
AcDbEntity
  8
0
  6
ByBlock
 62
    0
370
   -2
100
AcDbLine
 10
5.264999999999999
 20
4.802
 11
5.078474075668836
 21
4.802
  0
ENDBLK
  5
82
330
80
100
AcDbEntity
  8
0
100
AcDbBlockEnd
  0
BLOCK
  5
84
330
83
100
AcDbEntity
  8
0
100
AcDbBlockBegin
  2
*D16
 70
    1
 10
0
 20
0
  3
*D16
  1

  0
LINE
  5
EB
100
AcDbEntity
  8
0
  6
ByBlock
 62
    0
370
   -2
100
AcDbLine
 10
9.25
 20
2.270215977642268
 11
10.85
 21
2.270215977642268
  0
SOLID
  5
EC
100
AcDbEntity
  8
0
  6
ByBlock
 62
    0
370
   -2
100
AcDbTrace
 10
9.25
 20
2.270215977642268
 30
0
 11
9.33
 21
2.283537086690999
 31
0
 12
9.33
 22
2.256894868593537
 32
0
 13
9.33
 23
2.256894868593537
 33
0
  0
SOLID
  5
ED
100
AcDbEntity
  8
0
  6
ByBlock
 62
    0
370
   -2
100
AcDbTrace
 10
10.85
 20
2.270215977642268
 30
0
 11
10.77
 21
2.256894868593537
 31
0
 12
10.77
 22
2.283537086690999
 32
0
 13
10.77
 23
2.283537086690999
 33
0
  0
MTEXT
  5
EE
100
AcDbEntity
  8
0
  6
CONTINUOUS
 62
    0
370
   -2
100
AcDbMText
 10
10.05
 20
2.345215977642268
 30
0
 40
0.1
 41
0.2888888888888951
 71
    5
 72
    1
  1
1.600
  7
standard
210
0
220
0
230
1
 50
0
 73
    2
 44
1
  0
LINE
  5
EF
100
AcDbEntity
  8
0
  6
ByBlock
 62
    0
370
   -2
100
AcDbLine
 10
9.25
 20
2.575
 11
9.25
 21
2.220215977642268
  0
LINE
  5
F0
100
AcDbEntity
  8
0
  6
ByBlock
 62
    0
370
   -2
100
AcDbLine
 10
10.85
 20
2.575
 11
10.85
 21
2.220215977642268
  0
ENDBLK
  5
85
330
83
100
AcDbEntity
  8
0
100
AcDbBlockEnd
  0
BLOCK
  5
87
330
86
100
AcDbEntity
  8
0
100
AcDbBlockBegin
  2
*D14
 70
    1
 10
0
 20
0
  3
*D14
  1

  0
LINE
  5
F1
100
AcDbEntity
  8
0
  6
ByBlock
 62
    0
370
   -2
100
AcDbLine
 10
6.416003015572877
 20
4.388812027351782
 11
6.883996984427124
 21
4.391187972648219
  0
SOLID
  5
F2
100
AcDbEntity
  8
0
  6
ByBlock
 62
    0
370
   -2
100
AcDbTrace
 10
6.576000953642705
 20
4.389624316342017
 30
0
 11
6.496069613296654
 21
4.375897234468148
 31
0
 12
6.495934355918928
 22
4.402539109225652
 32
0
 13
6.495934355918928
 23
4.402539109225652
 33
0
  0
SOLID
  5
F3
100
AcDbEntity
  8
0
  6
ByBlock
 62
    0
370
   -2
100
AcDbTrace
 10
6.723999046357296
 20
4.390375683657984
 30
0
 11
6.803930386703347
 21
4.404102765531853
 31
0
 12
6.804065644081073
 22
4.37746089077435
 32
0
 13
6.804065644081073
 23
4.37746089077435
 33
0
  0
MTEXT
  5
F4
100
AcDbEntity
  8
0
  6
CONTINUOUS
 62
    0
370
   -2
100
AcDbMText
 10
6.898616030656997
 20
4.466263158211285
 30
0
 40
0.1
 41
0.3
 71
    5
 72
    1
  1
0.148
  7
standard
210
0
220
0
230
1
 50
0.2908808175680703
 73
    2
 44
1
  0
ENDBLK
  5
88
330
86
100
AcDbEntity
  8
0
100
AcDbBlockEnd
  0
BLOCK
  5
8A
330
89
100
AcDbEntity
  8
0
100
AcDbBlockBegin
  2
*D1
 70
    1
 10
0
 20
0
  3
*D1
  1

  0
LINE
  5
F5
100
AcDbEntity
  8
0
  6
ByBlock
 62
    0
370
   -2
100
AcDbLine
 10
0.3206562934688184
 20
4.529999999999999
 11
0.3206562934688183
 21
2.67
  0
SOLID
  5
F6
100
AcDbEntity
  8
0
  6
ByBlock
 62
    0
370
   -2
100
AcDbTrace
 10
0.3206562934688184
 20
4.529999999999999
 30
0
 11
0.3339774025175493
 21
4.449999999999999
 31
0
 12
0.3073351844200875
 22
4.449999999999999
 32
0
 13
0.3073351844200875
 23
4.449999999999999
 33
0
  0
SOLID
  5
F7
100
AcDbEntity
  8
0
  6
ByBlock
 62
    0
370
   -2
100
AcDbTrace
 10
0.3206562934688183
 20
2.67
 30
0
 11
0.3073351844200874
 21
2.75
 31
0
 12
0.3339774025175492
 22
2.75
 32
0
 13
0.3339774025175492
 23
2.75
 33
0
  0
MTEXT
  5
F8
100
AcDbEntity
  8
0
  6
CONTINUOUS
 62
    0
370
   -2
100
AcDbMText
 10
0.2456562934688183
 20
3.6
 30
0
 40
0.1
 41
0.2888888888888951
 71
    5
 72
    1
  1
1.860
  7
standard
210
0
220
0
230
1
 50
90
 73
    2
 44
1
  0
LINE
  5
F9
100
AcDbEntity
  8
0
  6
ByBlock
 62
    0
370
   -2
100
AcDbLine
 10
0.644999999999999
 20
4.529999999999999
 11
0.2706562934688184
 21
4.529999999999999
  0
LINE
  5
FA
100
AcDbEntity
  8
0
  6
ByBlock
 62
    0
370
   -2
100
AcDbLine
 10
0.644999999999999
 20
2.67
 11
0.2706562934688183
 21
2.67
  0
ENDBLK
  5
8B
330
89
100
AcDbEntity
  8
0
100
AcDbBlockEnd
  0
BLOCK
  5
8D
330
8C
100
AcDbEntity
  8
0
100
AcDbBlockBegin
  2
*D21
 70
    1
 10
0
 20
0
  3
*D21
  1

  0
LINE
  5
FB
100
AcDbEntity
  8
0
  6
ByBlock
 62
    0
370
   -2
100
AcDbLine
 10
10.366
 20
2.839326855353907
 11
10.834
 21
2.839326855353907
  0
SOLID
  5
FC
100
AcDbEntity
  8
0
  6
ByBlock
 62
    0
370
   -2
100
AcDbTrace
 10
10.526
 20
2.839326855353907
 30
0
 11
10.446
 21
2.826005746305176
 31
0
 12
10.446
 22
2.852647964402637
 32
0
 13
10.446
 23
2.852647964402637
 33
0
  0
SOLID
  5
FD
100
AcDbEntity
  8
0
  6
ByBlock
 62
    0
370
   -2
100
AcDbTrace
 10
10.674
 20
2.839326855353907
 30
0
 11
10.754
 21
2.852647964402637
 31
0
 12
10.754
 22
2.826005746305176
 32
0
 13
10.754
 23
2.826005746305176
 33
0
  0
MTEXT
  5
FE
100
AcDbEntity
  8
0
  6
CONTINUOUS
 62
    0
370
   -2
100
AcDbMText
 10
10.849
 20
2.914326855353907
 30
0
 40
0.1
 41
0.3
 71
    5
 72
    1
  1
0.148
  7
standard
210
0
220
0
230
1
 50
0
 73
    2
 44
1
  0
LINE
  5
FF
100
AcDbEntity
  8
0
  6
ByBlock
 62
    0
370
   -2
100
AcDbLine
 10
10.526
 20
2.987
 11
10.526
 21
2.789326855353907
  0
LINE
  5
100
100
AcDbEntity
  8
0
  6
ByBlock
 62
    0
370
   -2
100
AcDbLine
 10
10.674
 20
2.987
 11
10.674
 21
2.789326855353907
  0
ENDBLK
  5
8E
330
8C
100
AcDbEntity
  8
0
100
AcDbBlockEnd
  0
ENDSEC
  0
SECTION
  2
ENTITIES
  0
CIRCLE
  5
101
100
AcDbEntity
  8
base_plate
  6
ByLayer
 62
  256
370
   -1
100
AcDbCircle
 10
0.669999999999999
 20
4.529999999999999
 40
0.1
  0
CIRCLE
  5
102
100
AcDbEntity
  8
base_plate
  6
ByLayer
 62
  256
370
   -1
100
AcDbCircle
 10
2.529999999999998
 20
4.529999999999999
 40
0.1
  0
CIRCLE
  5
103
100
AcDbEntity
  8
base_plate
  6
ByLayer
 62
  256
370
   -1
100
AcDbCircle
 10
2.529999999999998
 20
2.67
 40
0.1
  0
CIRCLE
  5
104
100
AcDbEntity
  8
base_plate
  6
ByLayer
 62
  256
370
   -1
100
AcDbCircle
 10
0.669999999999999
 20
2.67
 40
0.1
  0
CIRCLE
  5
105
100
AcDbEntity
  8
base_plate
  6
ByLayer
 62
  256
370
   -1
100
AcDbCircle
 10
1.599999999999999
 20
3.6
 40
0.8
  0
CIRCLE
  5
106
100
AcDbEntity
  8
base_plate
  6
ByLayer
 62
  256
370
   -1
100
AcDbCircle
 10
1.049999999999999
 20
4.890000000000001
 40
0.074
  0
CIRCLE
  5
107
100
AcDbEntity
  8
base_plate
  6
ByLayer
 62
  256
370
   -1
100
AcDbCircle
 10
2.149999999999999
 20
4.890000000000001
 40
0.074
  0
ARC
  5
108
100
AcDbEntity
  8
base_plate
  6
ByLayer
 62
  256
370
   -1
100
AcDbCircle
 10
0.783375964096594
 20
5.252
 40
0.05
100
AcDbArc
 50
90
 51
157.447748638125
  0
LINE
  5
109
100
AcDbEntity
  8
base_plate
  6
ByLayer
 62
  256
370
   -1
100
AcDbLine
 10
0.783375964096594
 20
5.302
 11
2.416624035903403
 21
5.302
  0
ARC
  5
10A
100
AcDbEntity
  8
base_plate
  6
ByLayer
 62
  256
370
   -1
100
AcDbCircle
 10
2.416624035903403
 20
5.252
 40
0.05
100
AcDbArc
 50
22.55225136187488
 51
90.00000000000013
  0
LINE
  5
10B
100
AcDbEntity
  8
base_plate
  6
ByLayer
 62
  256
370
   -1
100
AcDbLine
 10
0.5191174607386282
 20
4.746034845458619
 11
0.73719945624432
 21
5.271176290636326
  0
ARC
  5
10C
100
AcDbEntity
  8
base_plate
  6
ByLayer
 62
  256
370
   -1
100
AcDbCircle
 10
0.7499999999999991
 20
4.650153392276987
 40
0.25
100
AcDbArc
 50
157.4477486381251
 51
180
  0
LINE
  5
10D
100
AcDbEntity
  8
base_plate
  6
ByLayer
 62
  256
370
   -1
100
AcDbLine
 10
2.462800543755677
 20
5.271176290636327
 11
2.680882539261369
 21
4.746034845458619
  0
ARC
  5
10E
100
AcDbEntity
  8
base_plate
  6
ByLayer
 62
  256
370
   -1
100
AcDbCircle
 10
2.449999999999998
 20
4.650153392276987
 40
0.25
100
AcDbArc
 50
1.017777498068325e-13
 51
22.552251361875
  0
LINE
  5
10F
100
AcDbEntity
  8
base_plate
  6
ByLayer
 62
  256
370
   -1
100
AcDbLine
 10
0.4999999999999991
 20
4.650153392276987
 11
0.4999999999999991
 21
2.6
  0
ARC
  5
110
100
AcDbEntity
  8
base_plate
  6
ByLayer
 62
  256
370
   -1
100
AcDbCircle
 10
0.5999999999999988
 20
2.6
 40
0.1
100
AcDbArc
 50
180.0000000000001
 51
270
  0
LINE
  5
111
100
AcDbEntity
  8
base_plate
  6
ByLayer
 62
  256
370
   -1
100
AcDbLine
 10
0.5999999999999988
 20
2.5
 11
2.599999999999999
 21
2.5
  0
LINE
  5
112
100
AcDbEntity
  8
base_plate
  6
ByLayer
 62
  256
370
   -1
100
AcDbLine
 10
2.699999999999998
 20
2.6
 11
2.699999999999998
 21
4.650153392276987
  0
ARC
  5
113
100
AcDbEntity
  8
base_plate
  6
ByLayer
 62
  256
370
   -1
100
AcDbCircle
 10
2.599999999999999
 20
2.6
 40
0.1
100
AcDbArc
 50
270
 51
0
  0
DIMENSION
  5
114
100
AcDbEntity
  8
0
  6
ByLayer
 62
  256
370
   -1
100
AcDbDimension
  2
*D1
 10
0.3206562934688183
 20
2.67
 30
0
 11
0.2456562934688183
 21
3.6
 31
0
 70
   32
 71
    5
  3
Standard
 53
0
210
0
220
0
230
1
100
AcDbAlignedDimension
 13
0.669999999999999
 23
4.529999999999999
 33
0
 14
0.669999999999999
 24
2.67
 34
0
 50
90
100
AcDbRotatedDimension
  0
DIMENSION
  5
115
100
AcDbEntity
  8
0
  6
ByLayer
 62
  256
370
   -1
100
AcDbDimension
  2
*D2
 10
2.529999999999998
 20
2.247697979505408
 30
0
 11
1.599999999999999
 21
2.322697979505408
 31
0
 70
   32
 71
    5
  3
Standard
 53
0
210
0
220
0
230
1
100
AcDbAlignedDimension
 13
0.669999999999999
 23
2.67
 33
0
 14
2.529999999999998
 24
2.67
 34
0
100
AcDbRotatedDimension
  0
DIMENSION
  5
116
100
AcDbEntity
  8
0
  6
ByLayer
 62
  256
370
   -1
100
AcDbDimension
  2
*D3
 10
2.699999999999999
 20
1.982706177430895
 30
0
 11
1.599999999999999
 21
2.057706177430895
 31
0
 70
   32
 71
    5
  3
Standard
 53
0
210
0
220
0
230
1
100
AcDbAlignedDimension
 13
0.4999999999999988
 23
2.6
 33
0
 14
2.699999999999999
 24
2.6
 34
0
100
AcDbRotatedDimension
  0
DIMENSION
  5
117
100
AcDbEntity
  8
0
  6
ByLayer
 62
  256
370
   -1
100
AcDbDimension
  2
*D4
 10
0.06305039478319463
 20
2.5
 30
0
 11
-0.0119496052168053
 21
3.901
 31
0
 70
   32
 71
    5
  3
Standard
 53
0
210
0
220
0
230
1
100
AcDbAlignedDimension
 13
0.783375964096594
 23
5.302
 33
0
 14
0.5999999999999988
 24
2.5
 34
0
 50
90
100
AcDbRotatedDimension
  0
DIMENSION
  5
118
100
AcDbEntity
  8
0
  6
ByLayer
 62
  256
370
   -1
100
AcDbDimension
  2
*D5
 10
0.7999999999999989
 20
3.6
 30
0
 11
1.599999999999999
 21
3.675
 31
0
 70
   35
 71
    5
  3
Standard
 53
0
210
0
220
0
230
1
100
AcDbDiametricDimension
 15
2.399999999999999
 25
3.6
 35
0
 40
0
  0
DIMENSION
  5
119
100
AcDbEntity
  8
0
  6
ByLayer
 62
  256
370
   -1
100
AcDbDimension
  2
*D6
 10
2.223997980044881
 20
4.889453237458095
 30
0
 11
2.150554151224903
 21
4.964997952748192
 31
0
 70
   35
 71
    5
  3
Standard
 53
0
210
0
220
0
230
1
100
AcDbDiametricDimension
 15
2.076002019955117
 25
4.890546762541906
 35
0
 40
0
  0
DIMENSION
  5
11A
100
AcDbEntity
  8
0
  6
ByLayer
 62
  256
370
   -1
100
AcDbDimension
  2
*D7
 10
2.629998448179555
 20
4.52944289885984
 30
0
 11
2.530417825855118
 21
4.604998836134667
 31
0
 70
   35
 71
    5
  3
Standard
 53
0
210
0
220
0
230
1
100
AcDbDiametricDimension
 15
2.430001551820441
 25
4.530557101140159
 35
0
 40
0
  0
CIRCLE
  5
11B
100
AcDbEntity
  8
top_plate
  6
ByLayer
 62
  256
370
   -1
100
AcDbCircle
 10
6.475
 20
3.475
 40
0.079
  0
CIRCLE
  5
11C
100
AcDbEntity
  8
top_plate
  6
ByLayer
 62
  256
370
   -1
100
AcDbCircle
 10
5.725
 20
3.475
 40
0.079
  0
CIRCLE
  5
11D
100
AcDbEntity
  8
top_plate
  6
ByLayer
 62
  256
370
   -1
100
AcDbCircle
 10
5.725
 20
2.725
 40
0.079
  0
CIRCLE
  5
11E
100
AcDbEntity
  8
top_plate
  6
ByLayer
 62
  256
370
   -1
100
AcDbCircle
 10
6.475
 20
2.725
 40
0.079
  0
LINE
  5
11F
100
AcDbEntity
  8
top_plate
  6
ByLayer
 62
  256
370
   -1
100
AcDbLine
 10
5.289999999999999
 20
4.802
 11
6.91
 21
4.802
  0
CIRCLE
  5
120
100
AcDbEntity
  8
top_plate
  6
ByLayer
 62
  256
370
   -1
100
AcDbCircle
 10
5.549999999999999
 20
4.390000000000001
 40
0.074
  0
CIRCLE
  5
121
100
AcDbEntity
  8
top_plate
  6
ByLayer
 62
  256
370
   -1
100
AcDbCircle
 10
6.65
 20
4.390000000000001
 40
0.074
  0
ARC
  5
122
100
AcDbEntity
  8
top_plate
  6
ByLayer
 62
  256
370
   -1
100
AcDbCircle
 10
5.649999999999999
 20
2.649999999999999
 40
0.1
100
AcDbArc
 50
180
 51
270.0000000000001
  0
LINE
  5
123
100
AcDbEntity
  8
top_plate
  6
ByLayer
 62
  256
370
   -1
100
AcDbLine
 10
6.549999999999999
 20
2.55
 11
5.649999999999999
 21
2.55
  0
ARC
  5
124
100
AcDbEntity
  8
top_plate
  6
ByLayer
 62
  256
370
   -1
100
AcDbCircle
 10
6.549999999999999
 20
2.649999999999999
 40
0.1
100
AcDbArc
 50
270
 51
7.63333123551244e-14
  0
LINE
  5
125
100
AcDbEntity
  8
top_plate
  6
ByLayer
 62
  256
370
   -1
100
AcDbLine
 10
5.549999999999999
 20
2.649999999999999
 11
5.549999999999999
 21
3.546324405825245
  0
ARC
  5
126
100
AcDbEntity
  8
top_plate
  6
ByLayer
 62
  256
370
   -1
100
AcDbCircle
 10
5.049999999999999
 20
3.546324405825245
 40
0.5
100
AcDbArc
 50
0
 51
23.4286928087454
  0
LINE
  5
127
100
AcDbEntity
  8
top_plate
  6
ByLayer
 62
  256
370
   -1
100
AcDbLine
 10
6.65
 20
3.546324405825245
 11
6.65
 21
2.65
  0
ARC
  5
128
100
AcDbEntity
  8
top_plate
  6
ByLayer
 62
  256
370
   -1
100
AcDbCircle
 10
7.15
 20
3.546324405825245
 40
0.5
100
AcDbArc
 50
156.5713071912546
 51
180
  0
LINE
  5
129
100
AcDbEntity
  8
top_plate
  6
ByLayer
 62
  256
370
   -1
100
AcDbLine
 10
5.508777812654961
 20
3.745128124642395
 11
5.32297774987603
 21
4.173897500286084
  0
LINE
  5
12A
100
AcDbEntity
  8
top_plate
  6
ByLayer
 62
  256
370
   -1
100
AcDbLine
 10
5.289999999999999
 20
4.332940475339804
 11
5.289999999999999
 21
4.802
  0
ARC
  5
12B
100
AcDbEntity
  8
top_plate
  6
ByLayer
 62
  256
370
   -1
100
AcDbCircle
 10
5.69
 20
4.332940475339804
 40
0.4
100
AcDbArc
 50
180
 51
203.4286928087454
  0
LINE
  5
12C
100
AcDbEntity
  8
top_plate
  6
ByLayer
 62
  256
370
   -1
100
AcDbLine
 10
6.691222187345037
 20
3.745128124642395
 11
6.87702225012397
 21
4.173897500286084
  0
LINE
  5
12D
100
AcDbEntity
  8
top_plate
  6
ByLayer
 62
  256
370
   -1
100
AcDbLine
 10
6.91
 20
4.802
 11
6.91
 21
4.332940475339804
  0
ARC
  5
12E
100
AcDbEntity
  8
top_plate
  6
ByLayer
 62
  256
370
   -1
100
AcDbCircle
 10
6.51
 20
4.332940475339804
 40
0.4
100
AcDbArc
 50
336.5713071912546
 51
0
  0
CIRCLE
  5
12F
100
AcDbEntity
  8
side_plate
  6
ByLayer
 62
  256
370
   -1
100
AcDbCircle
 10
10.6
 20
3.491999999999999
 40
0.074
  0
CIRCLE
  5
130
100
AcDbEntity
  8
side_plate
  6
ByLayer
 62
  256
370
   -1
100
AcDbCircle
 10
9.5
 20
3.491999999999999
 40
0.074
  0
LINE
  5
131
100
AcDbEntity
  8
side_plate
  6
ByLayer
 62
  256
370
   -1
100
AcDbLine
 10
9.426000000000007
 20
3.212
 11
9.426
 21
3.012
  0
LINE
  5
132
100
AcDbEntity
  8
side_plate
  6
ByLayer
 62
  256
370
   -1
100
AcDbLine
 10
9.574
 20
3.211999999999999
 11
9.574
 21
3.012
  0
LINE
  5
133
100
AcDbEntity
  8
side_plate
  6
ByLayer
 62
  256
370
   -1
100
AcDbLine
 10
10.52599999999998
 20
3.211999999999999
 11
10.526
 21
3.012
  0
LINE
  5
134
100
AcDbEntity
  8
side_plate
  6
ByLayer
 62
  256
370
   -1
100
AcDbLine
 10
10.67400000000002
 20
3.212
 11
10.674
 21
3.012
  0
ARC
  5
135
100
AcDbEntity
  8
side_plate
  6
ByLayer
 62
  256
370
   -1
100
AcDbCircle
 10
9.5
 20
3.212
 40
0.074
100
AcDbArc
 50
359.9999673670744
 51
539.9999999999984
  0
ARC
  5
136
100
AcDbEntity
  8
side_plate
  6
ByLayer
 62
  256
370
   -1
100
AcDbCircle
 10
9.5
 20
3.012
 40
0.074
100
AcDbArc
 50
179.9999999999983
 51
3.26329263352516e-05
  0
ARC
  5
137
100
AcDbEntity
  8
side_plate
  6
ByLayer
 62
  256
370
   -1
100
AcDbCircle
 10
10.6
 20
3.212
 40
0.074
100
AcDbArc
 50
359.9999434781087
 51
540.0000461499321
  0
ARC
  5
138
100
AcDbEntity
  8
side_plate
  6
ByLayer
 62
  256
370
   -1
100
AcDbCircle
 10
10.6
 20
3.012
 40
0.074
100
AcDbArc
 50
180
 51
4.614992028312699e-05
  0
LWPOLYLINE
  5
139
100
AcDbEntity
  8
side_plate
  6
ByLayer
 62
  256
370
   -1
100
AcDbPolyline
 90
    4
 70
    1
 43
0
 10
9.25
 20
3.903999999999999
 10
10.85
 20
3.903999999999999
 10
10.85
 20
2.6
 10
9.25
 20
2.6
  0
DIMENSION
  5
13A
100
AcDbEntity
  8
0
  6
ByLayer
 62
  256
370
   -1
100
AcDbDimension
  2
*D8
 10
6.65
 20
4.575626641292031
 30
0
 11
6.1
 21
4.650626641292032
 31
0
 70
   32
 71
    5
  3
Standard
 53
0
210
0
220
0
230
1
100
AcDbAlignedDimension
 13
5.549999999999999
 23
4.390000000000001
 33
0
 14
6.65
 24
4.390000000000001
 34
0
100
AcDbRotatedDimension
  0
DIMENSION
  5
13B
100
AcDbEntity
  8
0
  6
ByLayer
 62
  256
370
   -1
100
AcDbDimension
  2
*D9
 10
6.91
 20
5.009125127024262
 30
0
 11
6.1
 21
5.084125127024262
 31
0
 70
   32
 71
    5
  3
Standard
 53
0
210
0
220
0
230
1
100
AcDbAlignedDimension
 13
5.289999999999999
 23
4.802
 33
0
 14
6.91
 24
4.802
 34
0
100
AcDbRotatedDimension
  0
DIMENSION
  5
13C
100
AcDbEntity
  8
0
  6
ByLayer
 62
  256
370
   -1
100
AcDbDimension
  2
*D10
 10
5.128474075668836
 20
4.802
 30
0
 11
5.053474075668836
 21
3.676
 31
0
 70
   32
 71
    5
  3
Standard
 53
0
210
0
220
0
230
1
100
AcDbAlignedDimension
 13
5.649999999999999
 23
2.55
 33
0
 14
5.289999999999999
 24
4.802
 34
0
 50
90
100
AcDbRotatedDimension
  0
DIMENSION
  5
13D
100
AcDbEntity
  8
0
  6
ByLayer
 62
  256
370
   -1
100
AcDbDimension
  2
*D11
 10
6.475
 20
3.756403854674728
 30
0
 11
6.1
 21
3.831403854674728
 31
0
 70
   32
 71
    5
  3
Standard
 53
0
210
0
220
0
230
1
100
AcDbAlignedDimension
 13
5.725
 23
3.475
 33
0
 14
6.475
 24
3.475
 34
0
100
AcDbRotatedDimension
  0
DIMENSION
  5
13E
100
AcDbEntity
  8
0
  6
ByLayer
 62
  256
370
   -1
100
AcDbDimension
  2
*D12
 10
5.384143426514699
 20
2.725
 30
0
 11
5.309143426514699
 21
3.1
 31
0
 70
   32
 71
    5
  3
Standard
 53
0
210
0
220
0
230
1
100
AcDbAlignedDimension
 13
5.725
 23
3.475
 33
0
 14
5.725
 24
2.725
 34
0
 50
90
100
AcDbRotatedDimension
  0
DIMENSION
  5
13F
100
AcDbEntity
  8
0
  6
ByLayer
 62
  256
370
   -1
100
AcDbDimension
  2
*D13
 10
6.553998372992805
 20
2.724492984724484
 30
0
 11
6.475481343615996
 21
2.799998455372916
 31
0
 70
   35
 71
    5
  3
Standard
 53
0
210
0
220
0
230
1
100
AcDbDiametricDimension
 15
6.396001627007195
 25
2.725507015275516
 35
0
 40
0
  0
DIMENSION
  5
140
100
AcDbEntity
  8
0
  6
ByLayer
 62
  256
370
   -1
100
AcDbDimension
  2
*D14
 10
6.576000953642705
 20
4.389624316342017
 30
0
 11
6.649619239535828
 21
4.464999033470232
 31
0
 70
   35
 71
    5
  3
Standard
 53
0
210
0
220
0
230
1
100
AcDbDiametricDimension
 15
6.723999046357296
 25
4.390375683657984
 35
0
 40
0
  0
DIMENSION
  5
141
100
AcDbEntity
  8
0
  6
ByLayer
 62
  256
370
   -1
100
AcDbDimension
  2
*D15
 10
6.65
 20
2.309847654363133
 30
0
 11
6.1
 21
2.384847654363133
 31
0
 70
   32
 71
    5
  3
Standard
 53
0
210
0
220
0
230
1
100
AcDbAlignedDimension
 13
5.549999999999999
 23
2.649999999999999
 33
0
 14
6.65
 24
2.65
 34
0
100
AcDbRotatedDimension
  0
DIMENSION
  5
142
100
AcDbEntity
  8
0
  6
ByLayer
 62
  256
370
   -1
100
AcDbDimension
  2
*D16
 10
10.85
 20
2.270215977642268
 30
0
 11
10.05
 21
2.345215977642268
 31
0
 70
   32
 71
    5
  3
Standard
 53
0
210
0
220
0
230
1
100
AcDbAlignedDimension
 13
9.25
 23
2.6
 33
0
 14
10.85
 24
2.6
 34
0
100
AcDbRotatedDimension
  0
DIMENSION
  5
143
100
AcDbEntity
  8
0
  6
ByLayer
 62
  256
370
   -1
100
AcDbDimension
  2
*D17
 10
10.6
 20
3.705738358866815
 30
0
 11
10.05
 21
3.780738358866815
 31
0
 70
   32
 71
    5
  3
Standard
 53
0
210
0
220
0
230
1
100
AcDbAlignedDimension
 13
9.5
 23
3.491999999999999
 33
0
 14
10.6
 24
3.491999999999999
 34
0
100
AcDbRotatedDimension
  0
DIMENSION
  5
144
100
AcDbEntity
  8
0
  6
ByLayer
 62
  256
370
   -1
100
AcDbDimension
  2
*D18
 10
10.52600735147681
 20
3.490956944621001
 30
0
 11
10.59894284927804
 21
3.566992549178908
 31
0
 70
   35
 71
    5
  3
Standard
 53
0
210
0
220
0
230
1
100
AcDbDiametricDimension
 15
10.67399264852319
 25
3.493043055378997
 35
0
 40
0
  0
DIMENSION
  5
145
100
AcDbEntity
  8
0
  6
ByLayer
 62
  256
370
   -1
100
AcDbDimension
  2
*D19
 10
8.971170457723304
 20
2.6
 30
0
 11
8.896170457723304
 21
3.251999999999999
 31
0
 70
   32
 71
    5
  3
Standard
 53
0
210
0
220
0
230
1
100
AcDbAlignedDimension
 13
9.25
 23
3.903999999999999
 33
0
 14
9.25
 24
2.6
 34
0
 50
90
100
AcDbRotatedDimension
  0
DIMENSION
  5
146
100
AcDbEntity
  8
0
  6
ByLayer
 62
  256
370
   -1
100
AcDbDimension
  2
*D20
 10
9.776774359067485
 20
2.938000000000276
 30
0
 11
9.701774359067485
 21
3.112000000000096
 31
0
 70
   32
 71
    5
  3
Standard
 53
0
210
0
220
0
230
1
100
AcDbAlignedDimension
 13
9.5
 23
3.285999999999916
 33
0
 14
9.5
 24
2.938000000000276
 34
0
 50
90
100
AcDbRotatedDimension
  0
DIMENSION
  5
147
100
AcDbEntity
  8
0
  6
ByLayer
 62
  256
370
   -1
100
AcDbDimension
  2
*D21
 10
10.674
 20
2.839326855353907
 30
0
 11
10.6
 21
2.914326855353907
 31
0
 70
   32
 71
    5
  3
Standard
 53
0
210
0
220
0
230
1
100
AcDbAlignedDimension
 13
10.526
 23
3.012
 33
0
 14
10.674
 24
3.012
 34
0
100
AcDbRotatedDimension
  0
ENDSEC
  0
SECTION
  2
OBJECTS
  0
DICTIONARY
  5
C
330
0
100
AcDbDictionary
281
    1
  3
ACAD_GROUP
350
D
  0
DICTIONARY
  5
D
330
C
100
AcDbDictionary
281
    1
  0
ENDSEC
  0
EOF
