<?xml version="1.0" encoding="UTF-8" standalone="no"?>
<!-- Created with Inkscape (http://www.inkscape.org/) -->

<svg
   xmlns:dc="http://purl.org/dc/elements/1.1/"
   xmlns:cc="http://creativecommons.org/ns#"
   xmlns:rdf="http://www.w3.org/1999/02/22-rdf-syntax-ns#"
   xmlns:svg="http://www.w3.org/2000/svg"
   xmlns="http://www.w3.org/2000/svg"
   xmlns:sodipodi="http://sodipodi.sourceforge.net/DTD/sodipodi-0.dtd"
   xmlns:inkscape="http://www.inkscape.org/namespaces/inkscape"
   width="24in"
   height="18in"
   viewBox="0 0 2160 1620"
   id="svg2"
   version="1.1"
   inkscape:version="0.91 r13725"
   sodipodi:docname="layout_em3242_to_nema23.svg">
  <defs
     id="defs4">
    <marker
       style="overflow:visible"
       refY="0"
       refX="0"
       orient="auto"
       id="DistanceX">
      <path
         id="path3362"
         style="stroke:#000000;stroke-width:0.5"
         d="M 3,-3 -3,3 M 0,-5 0,5"
         inkscape:connector-curvature="0" />
    </marker>
    <pattern
       y="0"
       x="0"
       width="8"
       patternUnits="userSpaceOnUse"
       id="Hatch"
       height="8">
      <path
         id="path3365"
         stroke-width="0.25"
         stroke="#000000"
         linecap="square"
         d="M8 4 l-4,4" />
      <path
         id="path3367"
         stroke-width="0.25"
         stroke="#000000"
         linecap="square"
         d="M6 2 l-4,4" />
      <path
         id="path3369"
         stroke-width="0.25"
         stroke="#000000"
         linecap="square"
         d="M4 0 l-4,4" />
    </pattern>
    <symbol
       id="*Model_Space" />
    <symbol
       id="*Paper_Space" />
    <marker
       style="overflow:visible"
       refY="0.0"
       refX="0.0"
       orient="auto"
       id="DistanceX-3">
      <path
         id="path5099"
         style="stroke:#000000; stroke-width:0.5"
         d="M 3,-3 L -3,3 M 0,-5 L  0,5" />
    </marker>
    <pattern
       y="0"
       x="0"
       width="8"
       patternUnits="userSpaceOnUse"
       id="Hatch-6"
       height="8">
      <path
         id="path5102"
         stroke-width="0.25"
         stroke="#000000"
         linecap="square"
         d="M8 4 l-4,4" />
      <path
         id="path5104"
         stroke-width="0.25"
         stroke="#000000"
         linecap="square"
         d="M6 2 l-4,4" />
      <path
         id="path5106"
         stroke-width="0.25"
         stroke="#000000"
         linecap="square"
         d="M4 0 l-4,4" />
    </pattern>
    <symbol
       id="*Model_Space-7" />
    <symbol
       id="*Paper_Space-5" />
  </defs>
  <sodipodi:namedview
     id="base"
     pagecolor="#ffffff"
     bordercolor="#666666"
     borderopacity="1.0"
     inkscape:pageopacity="0.0"
     inkscape:pageshadow="2"
     inkscape:zoom="0.7"
     inkscape:cx="1131.1353"
     inkscape:cy="354.28571"
     inkscape:document-units="px"
     inkscape:current-layer="layer1"
     showgrid="false"
     units="in"
     inkscape:window-width="1920"
     inkscape:window-height="1135"
     inkscape:window-x="0"
     inkscape:window-y="0"
     inkscape:window-maximized="1" />
  <metadata
     id="metadata7">
    <rdf:RDF>
      <cc:Work
         rdf:about="">
        <dc:format>image/svg+xml</dc:format>
        <dc:type
           rdf:resource="http://purl.org/dc/dcmitype/StillImage" />
        <dc:title></dc:title>
      </cc:Work>
    </rdf:RDF>
  </metadata>
  <g
     inkscape:label="Layer 1"
     inkscape:groupmode="layer"
     id="layer1"
     transform="translate(0,567.63785)">
    <g
       inkscape:label="0"
       id="g3373"
       transform="translate(-5.2171243,-44.926663)" />
    <g
       style="stroke:#000000;stroke-width:0.09;stroke-miterlimit:4;stroke-dasharray:none;stroke-opacity:1"
       inkscape:label="0"
       id="g5110"
       transform="translate(753.60717,-63.195764)" />
    <g
       style="stroke:#000000;stroke-width:0.09;stroke-miterlimit:4;stroke-dasharray:none;stroke-opacity:1"
       inkscape:label="base_plate"
       id="g5112"
       transform="translate(33.60717,-27.481478)">
      <path
         inkscape:connector-curvature="0"
         d="m 69.3,824.6622 a 9,9 0 1 0 -18,0 9,9 0 1 0 18,0 z"
         style="fill:none;stroke:#000000;stroke-width:0.09;stroke-linecap:round;stroke-miterlimit:4;stroke-dasharray:none;stroke-opacity:1"
         id="path5114" />
      <path
         inkscape:connector-curvature="0"
         d="m 236.7,824.6622 a 9,9 0 1 0 -18,0 9,9 0 1 0 18,0 z"
         style="fill:none;stroke:#000000;stroke-width:0.09;stroke-linecap:round;stroke-miterlimit:4;stroke-dasharray:none;stroke-opacity:1"
         id="path5116" />
      <path
         inkscape:connector-curvature="0"
         d="m 236.7,992.0622 a 9,9 0 1 0 -18,0 9,9 0 1 0 18,0 z"
         style="fill:none;stroke:#000000;stroke-width:0.09;stroke-linecap:round;stroke-miterlimit:4;stroke-dasharray:none;stroke-opacity:1"
         id="path5118" />
      <path
         inkscape:connector-curvature="0"
         d="m 69.3,992.0622 a 9,9 0 1 0 -18,0 9,9 0 1 0 18,0 z"
         style="fill:none;stroke:#000000;stroke-width:0.09;stroke-linecap:round;stroke-miterlimit:4;stroke-dasharray:none;stroke-opacity:1"
         id="path5120" />
      <path
         inkscape:connector-curvature="0"
         d="m 216,908.36221 a 72,72 0 1 0 -144,0 72,72 0 1 0 144,0 z"
         style="fill:none;stroke:#000000;stroke-width:0.09;stroke-linecap:round;stroke-miterlimit:4;stroke-dasharray:none;stroke-opacity:1"
         id="path5122" />
      <path
         inkscape:connector-curvature="0"
         d="m 101.16,792.2622 a 6.66,6.66 0 1 0 -13.32,0 6.66,6.66 0 1 0 13.32,0 z"
         style="fill:none;stroke:#000000;stroke-width:0.09;stroke-linecap:round;stroke-miterlimit:4;stroke-dasharray:none;stroke-opacity:1"
         id="path5124" />
      <path
         inkscape:connector-curvature="0"
         d="m 200.16,792.2622 a 6.66,6.66 0 1 0 -13.32,0 6.66,6.66 0 1 0 13.32,0 z"
         style="fill:none;stroke:#000000;stroke-width:0.09;stroke-linecap:round;stroke-miterlimit:4;stroke-dasharray:none;stroke-opacity:1"
         id="path5126" />
      <path
         inkscape:connector-curvature="0"
         d="m 70.503837,755.1822 a 4.5,4.5 0 0 0 -4.155886,2.77414"
         style="fill:none;stroke:#000000;stroke-width:0.09;stroke-linecap:round;stroke-miterlimit:4;stroke-dasharray:none;stroke-opacity:1"
         id="path5128" />
      <path
         inkscape:connector-curvature="0"
         d="m 70.503837,755.1822 146.992323,0"
         style="fill:none;stroke:#000000;stroke-width:0.09;stroke-linecap:round;stroke-miterlimit:4;stroke-dasharray:none;stroke-opacity:1"
         id="path5130" />
      <path
         inkscape:connector-curvature="0"
         d="m 221.65205,757.95634 a 4.5,4.5 0 0 0 -4.15589,-2.77414"
         style="fill:none;stroke:#000000;stroke-width:0.09;stroke-linecap:round;stroke-miterlimit:4;stroke-dasharray:none;stroke-opacity:1"
         id="path5132" />
      <path
         inkscape:connector-curvature="0"
         d="m 46.720571,805.21907 19.62738,-47.26273"
         style="fill:none;stroke:#000000;stroke-width:0.09;stroke-linecap:round;stroke-miterlimit:4;stroke-dasharray:none;stroke-opacity:1"
         id="path5134" />
      <path
         inkscape:connector-curvature="0"
         d="M 46.720571,805.21907 A 22.5,22.5 0 0 0 45,813.8484"
         style="fill:none;stroke:#000000;stroke-width:0.09;stroke-linecap:round;stroke-miterlimit:4;stroke-dasharray:none;stroke-opacity:1"
         id="path5136" />
      <path
         inkscape:connector-curvature="0"
         d="m 221.65205,757.95634 19.62738,47.26273"
         style="fill:none;stroke:#000000;stroke-width:0.09;stroke-linecap:round;stroke-miterlimit:4;stroke-dasharray:none;stroke-opacity:1"
         id="path5138" />
      <path
         inkscape:connector-curvature="0"
         d="m 243,813.8484 a 22.5,22.5 0 0 0 -1.72057,-8.62933"
         style="fill:none;stroke:#000000;stroke-width:0.09;stroke-linecap:round;stroke-miterlimit:4;stroke-dasharray:none;stroke-opacity:1"
         id="path5140" />
      <path
         inkscape:connector-curvature="0"
         d="m 45,813.8484 0,184.51381"
         style="fill:none;stroke:#000000;stroke-width:0.09;stroke-linecap:round;stroke-miterlimit:4;stroke-dasharray:none;stroke-opacity:1"
         id="path5142" />
      <path
         inkscape:connector-curvature="0"
         d="m 45,998.36221 a 9,9 0 0 0 9,8.99999"
         style="fill:none;stroke:#000000;stroke-width:0.09;stroke-linecap:round;stroke-miterlimit:4;stroke-dasharray:none;stroke-opacity:1"
         id="path5144" />
      <path
         inkscape:connector-curvature="0"
         d="m 54,1007.3622 180,0"
         style="fill:none;stroke:#000000;stroke-width:0.09;stroke-linecap:round;stroke-miterlimit:4;stroke-dasharray:none;stroke-opacity:1"
         id="path5146" />
      <path
         inkscape:connector-curvature="0"
         d="M 243,998.36221 243,813.8484"
         style="fill:none;stroke:#000000;stroke-width:0.09;stroke-linecap:round;stroke-miterlimit:4;stroke-dasharray:none;stroke-opacity:1"
         id="path5148" />
      <path
         inkscape:connector-curvature="0"
         d="m 234,1007.3622 a 9,9 0 0 0 9,-8.99999"
         style="fill:none;stroke:#000000;stroke-width:0.09;stroke-linecap:round;stroke-miterlimit:4;stroke-dasharray:none;stroke-opacity:1"
         id="path5150" />
    </g>
    <g
       style="stroke:#000000;stroke-width:0.09;stroke-miterlimit:4;stroke-dasharray:none;stroke-opacity:1"
       inkscape:label="side_plate"
       id="g5152"
       transform="translate(33.60717,-27.481478)">
      <path
         inkscape:connector-curvature="0"
         d="m 537.66,918.08221 a 6.66,6.66 0 1 0 -13.32,0 6.66,6.66 0 1 0 13.32,0 z"
         style="fill:none;stroke:#000000;stroke-width:0.09;stroke-linecap:round;stroke-miterlimit:4;stroke-dasharray:none;stroke-opacity:1"
         id="path5154" />
      <path
         inkscape:connector-curvature="0"
         d="m 438.66,918.08221 a 6.66,6.66 0 1 0 -13.32,0 6.66,6.66 0 1 0 13.32,0 z"
         style="fill:none;stroke:#000000;stroke-width:0.09;stroke-linecap:round;stroke-miterlimit:4;stroke-dasharray:none;stroke-opacity:1"
         id="path5156" />
      <path
         inkscape:connector-curvature="0"
         d="m 425.34,943.2822 0,18"
         style="fill:none;stroke:#000000;stroke-width:0.09;stroke-linecap:round;stroke-miterlimit:4;stroke-dasharray:none;stroke-opacity:1"
         id="path5158" />
      <path
         inkscape:connector-curvature="0"
         d="m 438.66,943.2822 0,18"
         style="fill:none;stroke:#000000;stroke-width:0.09;stroke-linecap:round;stroke-miterlimit:4;stroke-dasharray:none;stroke-opacity:1"
         id="path5160" />
      <path
         inkscape:connector-curvature="0"
         d="m 524.34,943.2822 0,18"
         style="fill:none;stroke:#000000;stroke-width:0.09;stroke-linecap:round;stroke-miterlimit:4;stroke-dasharray:none;stroke-opacity:1"
         id="path5162" />
      <path
         inkscape:connector-curvature="0"
         d="m 537.66,943.2822 0,18"
         style="fill:none;stroke:#000000;stroke-width:0.09;stroke-linecap:round;stroke-miterlimit:4;stroke-dasharray:none;stroke-opacity:1"
         id="path5164" />
      <path
         inkscape:connector-curvature="0"
         d="m 438.66,943.28221 a 6.66,6.66 0 1 0 -13.32,-10e-6"
         style="fill:none;stroke:#000000;stroke-width:0.09;stroke-linecap:round;stroke-miterlimit:4;stroke-dasharray:none;stroke-opacity:1"
         id="path5166" />
      <path
         inkscape:connector-curvature="0"
         d="m 425.34,961.2822 a 6.66,6.66 0 1 0 13.32,0"
         style="fill:none;stroke:#000000;stroke-width:0.09;stroke-linecap:round;stroke-miterlimit:4;stroke-dasharray:none;stroke-opacity:1"
         id="path5168" />
      <path
         inkscape:connector-curvature="0"
         d="m 537.66,943.28221 a 6.66,6.66 0 1 0 -13.32,0"
         style="fill:none;stroke:#000000;stroke-width:0.09;stroke-linecap:round;stroke-miterlimit:4;stroke-dasharray:none;stroke-opacity:1"
         id="path5170" />
      <path
         inkscape:connector-curvature="0"
         d="m 524.34,961.2822 a 6.66,6.66 0 1 0 13.32,0"
         style="fill:none;stroke:#000000;stroke-width:0.09;stroke-linecap:round;stroke-miterlimit:4;stroke-dasharray:none;stroke-opacity:1"
         id="path5172" />
      <path
         inkscape:connector-curvature="0"
         d="m 409.5,881.0022 144,0 0,117.36001 -144,0 0,-117.36001 z"
         style="fill:none;stroke:#000000;stroke-width:0.09;stroke-linecap:round;stroke-miterlimit:4;stroke-dasharray:none;stroke-opacity:1"
         id="path5174" />
    </g>
    <g
       style="stroke:#000000;stroke-width:0.09;stroke-miterlimit:4;stroke-dasharray:none;stroke-opacity:1"
       inkscape:label="top_plate"
       id="g5176"
       transform="translate(33.60717,-27.481478)">
      <path
         inkscape:connector-curvature="0"
         d="m 373.86,919.61221 a 7.11,7.11 0 1 0 -14.22,0 7.11,7.11 0 1 0 14.22,0 z"
         style="fill:none;stroke:#000000;stroke-width:0.09;stroke-linecap:round;stroke-miterlimit:4;stroke-dasharray:none;stroke-opacity:1"
         id="path5178" />
      <path
         inkscape:connector-curvature="0"
         d="m 306.36,919.61221 a 7.11,7.11 0 1 0 -14.22,0 7.11,7.11 0 1 0 14.22,0 z"
         style="fill:none;stroke:#000000;stroke-width:0.09;stroke-linecap:round;stroke-miterlimit:4;stroke-dasharray:none;stroke-opacity:1"
         id="path5180" />
      <path
         inkscape:connector-curvature="0"
         d="m 306.36,987.11221 a 7.11,7.11 0 1 0 -14.22,0 7.11,7.11 0 1 0 14.22,0 z"
         style="fill:none;stroke:#000000;stroke-width:0.09;stroke-linecap:round;stroke-miterlimit:4;stroke-dasharray:none;stroke-opacity:1"
         id="path5182" />
      <path
         inkscape:connector-curvature="0"
         d="m 373.86,987.11221 a 7.11,7.11 0 1 0 -14.22,0 7.11,7.11 0 1 0 14.22,0 z"
         style="fill:none;stroke:#000000;stroke-width:0.09;stroke-linecap:round;stroke-miterlimit:4;stroke-dasharray:none;stroke-opacity:1"
         id="path5184" />
      <path
         inkscape:connector-curvature="0"
         d="m 260.1,800.1822 145.8,0"
         style="fill:none;stroke:#000000;stroke-width:0.09;stroke-linecap:round;stroke-miterlimit:4;stroke-dasharray:none;stroke-opacity:1"
         id="path5186" />
      <path
         inkscape:connector-curvature="0"
         d="m 290.16,837.2622 a 6.66,6.66 0 1 0 -13.32,0 6.66,6.66 0 1 0 13.32,0 z"
         style="fill:none;stroke:#000000;stroke-width:0.09;stroke-linecap:round;stroke-miterlimit:4;stroke-dasharray:none;stroke-opacity:1"
         id="path5188" />
      <path
         inkscape:connector-curvature="0"
         d="m 389.16,837.2622 a 6.66,6.66 0 1 0 -13.32,0 6.66,6.66 0 1 0 13.32,0 z"
         style="fill:none;stroke:#000000;stroke-width:0.09;stroke-linecap:round;stroke-miterlimit:4;stroke-dasharray:none;stroke-opacity:1"
         id="path5190" />
      <path
         inkscape:connector-curvature="0"
         d="m 283.5,993.86221 a 9,9 0 0 0 9,8.99999"
         style="fill:none;stroke:#000000;stroke-width:0.09;stroke-linecap:round;stroke-miterlimit:4;stroke-dasharray:none;stroke-opacity:1"
         id="path5192" />
      <path
         inkscape:connector-curvature="0"
         d="m 373.5,1002.8622 -81,0"
         style="fill:none;stroke:#000000;stroke-width:0.09;stroke-linecap:round;stroke-miterlimit:4;stroke-dasharray:none;stroke-opacity:1"
         id="path5194" />
      <path
         inkscape:connector-curvature="0"
         d="m 373.5,1002.8622 a 9,9 0 0 0 9,-8.99999"
         style="fill:none;stroke:#000000;stroke-width:0.09;stroke-linecap:round;stroke-miterlimit:4;stroke-dasharray:none;stroke-opacity:1"
         id="path5196" />
      <path
         inkscape:connector-curvature="0"
         d="m 283.5,993.86221 0,-80.6692"
         style="fill:none;stroke:#000000;stroke-width:0.09;stroke-linecap:round;stroke-miterlimit:4;stroke-dasharray:none;stroke-opacity:1"
         id="path5198" />
      <path
         inkscape:connector-curvature="0"
         d="m 283.5,913.19301 a 45,45 0 0 0 -3.71,-17.89234"
         style="fill:none;stroke:#000000;stroke-width:0.09;stroke-linecap:round;stroke-miterlimit:4;stroke-dasharray:none;stroke-opacity:1"
         id="path5200" />
      <path
         inkscape:connector-curvature="0"
         d="m 382.5,913.19301 0,80.6692"
         style="fill:none;stroke:#000000;stroke-width:0.09;stroke-linecap:round;stroke-miterlimit:4;stroke-dasharray:none;stroke-opacity:1"
         id="path5202" />
      <path
         inkscape:connector-curvature="0"
         d="m 386.21,895.30067 a 45,45 0 0 0 -3.71,17.89234"
         style="fill:none;stroke:#000000;stroke-width:0.09;stroke-linecap:round;stroke-miterlimit:4;stroke-dasharray:none;stroke-opacity:1"
         id="path5204" />
      <path
         inkscape:connector-curvature="0"
         d="M 279.79,895.30067 263.068,856.71143"
         style="fill:none;stroke:#000000;stroke-width:0.09;stroke-linecap:round;stroke-miterlimit:4;stroke-dasharray:none;stroke-opacity:1"
         id="path5206" />
      <path
         inkscape:connector-curvature="0"
         d="m 260.1,842.39756 0,-42.21536"
         style="fill:none;stroke:#000000;stroke-width:0.09;stroke-linecap:round;stroke-miterlimit:4;stroke-dasharray:none;stroke-opacity:1"
         id="path5208" />
      <path
         inkscape:connector-curvature="0"
         d="m 260.1,842.39756 a 36,36 0 0 0 2.968,14.31387"
         style="fill:none;stroke:#000000;stroke-width:0.09;stroke-linecap:round;stroke-miterlimit:4;stroke-dasharray:none;stroke-opacity:1"
         id="path5210" />
      <path
         inkscape:connector-curvature="0"
         d="m 386.21,895.30067 16.722,-38.58924"
         style="fill:none;stroke:#000000;stroke-width:0.09;stroke-linecap:round;stroke-miterlimit:4;stroke-dasharray:none;stroke-opacity:1"
         id="path5212" />
      <path
         inkscape:connector-curvature="0"
         d="m 405.9,800.1822 0,42.21536"
         style="fill:none;stroke:#000000;stroke-width:0.09;stroke-linecap:round;stroke-miterlimit:4;stroke-dasharray:none;stroke-opacity:1"
         id="path5214" />
      <path
         inkscape:connector-curvature="0"
         d="M 402.932,856.71143 A 36,36 0 0 0 405.9,842.39756"
         style="fill:none;stroke:#000000;stroke-width:0.09;stroke-linecap:round;stroke-miterlimit:4;stroke-dasharray:none;stroke-opacity:1"
         id="path5216" />
    </g>
  </g>
</svg>
